<?xml version="1.0" encoding="UTF-8"?>
<svg width="1234px" height="334px" viewBox="0 0 1234 334" version="1.1" xmlns="http://www.w3.org/2000/svg" xmlns:xlink="http://www.w3.org/1999/xlink">
    <!-- Generator: Sketch 50.2 (55047) - http://www.bohemiancoding.com/sketch -->
    <title>5a9b05a0a5e9fa00010b5ac1_js-banners-new-13</title>
    <desc>Created with Sketch.</desc>
    <defs></defs>
    <g id="Page-1" stroke="none" stroke-width="1" fill="none" fill-rule="evenodd">
        <g id="5a9b05a0a5e9fa00010b5ac1_js-banners-new-13" fill-rule="nonzero">
            <g id="Group">
                <g>
                    <polygon id="Shape" fill="#DF74E8" opacity="0.43" points="584.6 115.2 622.8 134.4 622.8 119.4 584.6 100.2"></polygon>
                    <polygon id="Shape" fill="#443356" opacity="0.26" points="584.6 100.2 530.2 72.9 530.2 60.3 503.3 66.8 530.2 100.4 530.2 87.9 584.6 115.2"></polygon>
                    <path d="M568.7,169.8 C568.1,169.8 567.7,169.4 567.7,168.8 L567.7,149.5 L532.7,149.5 L532.7,129.2 L497.7,129.2 L497.7,108.9 L462.7,108.9 L462.7,88.4 L414.8,88.4 C414.2,88.4 413.8,88 413.8,87.4 C413.8,86.8 414.2,86.4 414.8,86.4 L464.7,86.4 L464.7,106.7 L499.7,106.7 L499.7,127 L534.7,127 L534.7,147.3 L569.7,147.3 L569.7,168.6 C569.7,169.3 569.3,169.8 568.7,169.8 Z" id="Shape" fill="#443356"></path>
                    <polygon id="Shape" fill="#DF74E8" points="673.6 210.4 637.7 210.4 637.7 190.1 602.7 190.1 602.7 169.8 568.7 169.8 568.7 167.8 604.7 167.8 604.7 188.1 639.7 188.1 639.7 208.4 673.6 208.4"></polygon>
                    <polygon id="Shape" fill="#DF74E8" points="484.5 332.4 408.2 332.4 408.2 330.4 482.5 330.4 482.5 310.1 517.4 310.1 517.4 289.8 552.4 289.8 552.4 269.4 587.4 269.4 587.4 249.1 622.3 249.1 622.3 228.8 657.3 228.8 657.3 209.4 659.3 209.4 659.3 230.8 624.3 230.8 624.3 251.1 589.4 251.1 589.4 271.4 554.4 271.4 554.4 291.8 519.4 291.8 519.4 312.1 484.5 312.1"></polygon>
                    <rect id="Rectangle-path" fill="#DF74E8" x="658.3" y="208.4" width="77.9" height="2"></rect>
                    <path d="M531.1,34.1 L458.8,34.1 L458.8,1.4 L531.1,1.4 L531.1,34.1 Z M460.7,32.1 L529,32.1 L529,3.4 L460.7,3.4 L460.7,32.1 Z" id="Shape" fill="#443356"></path>
                    <g transform="translate(467.000000, 11.000000)" fill="#443356" id="Shape">
                        <path d="M9.3,7 L12.2,7 L12.2,11.6 C10.9,13 9.1,13.8 6.8,13.8 C4.9,13.8 3.3,13.2 2,11.9 C0.7,10.6 0.1,9 0.1,7.1 C0.1,5.2 0.8,3.6 2.1,2.3 C3.4,1 5,0.4 6.9,0.4 C8.8,0.4 10.4,1 11.8,2.2 L10.3,4.4 C9.7,3.9 9.2,3.5 8.7,3.3 C8.2,3.1 7.7,3 7.1,3 C6,3 5.1,3.4 4.3,4.1 C3.5,4.9 3.2,5.8 3.2,7.1 C3.2,8.3 3.6,9.3 4.3,10.1 C5,10.8 5.9,11.2 6.9,11.2 C7.9,11.2 8.7,11 9.4,10.6 L9.4,7 L9.3,7 Z"></path>
                        <path d="M26.4,11.8 C25.1,13.1 23.5,13.7 21.5,13.7 C19.6,13.7 18,13.1 16.6,11.8 C15.3,10.5 14.6,8.9 14.6,7 C14.6,5.1 15.3,3.5 16.6,2.2 C17.9,0.9 19.5,0.3 21.5,0.3 C23.4,0.3 25,0.9 26.4,2.2 C27.7,3.5 28.4,5.1 28.4,7 C28.4,8.9 27.7,10.5 26.4,11.8 Z M25.4,7 C25.4,5.8 25,4.8 24.3,4 C23.6,3.2 22.6,2.8 21.5,2.8 C20.4,2.8 19.5,3.2 18.7,4 C17.9,4.8 17.6,5.8 17.6,7 C17.6,8.2 18,9.2 18.7,10 C19.4,10.8 20.4,11.2 21.5,11.2 C22.6,11.2 23.5,10.8 24.3,10 C25.1,9.2 25.4,8.2 25.4,7 Z"></path>
                        <path d="M40.4,13.6 L39.2,10.8 L33.7,10.8 L32.5,13.6 L29.4,13.6 L35,0.6 L37.8,0.6 L43.4,13.6 L40.4,13.6 Z M36.4,4.5 L34.8,8.3 L38.1,8.3 L36.4,4.5 Z"></path>
                        <polygon points="45.6 13.6 45.6 0.6 48.5 0.6 48.5 11 54.1 11 54.1 13.6"></polygon>
                    </g>
                    <g transform="translate(360.000000, 194.000000)">
                        <g>
                            <rect id="Rectangle-path" fill="#DF74E8" x="1.6" y="1.3" width="68.3" height="43.3"></rect>
                            <path d="M70.9,45.6 L0.6,45.6 L0.6,0.3 L70.9,0.3 L70.9,45.6 Z M2.6,43.6 L68.9,43.6 L68.9,2.3 L2.6,2.3 L2.6,43.6 Z" id="Shape" fill="#443356"></path>
                        </g>
                        <g transform="translate(7.000000, 10.000000)" fill="#FFFFFF" id="Shape">
                            <polygon points="8.8 0.5 8.8 3.1 3 3.1 3 5.8 8.2 5.8 8.2 8.3 3 8.3 3 11 8.9 11 8.9 13.6 0.4 13.6 0.4 0.6 8.8 0.6"></polygon>
                            <polygon points="19.9 0.5 22.5 0.5 22.5 13.5 19.9 13.5 14.4 5.3 14.4 13.5 11.8 13.5 11.8 0.5 14.2 0.5 19.9 8.9 19.9 0.5"></polygon>
                            <polygon points="30.8 3 30.8 13.5 28.2 13.5 28.2 3 24.9 3 24.9 0.5 34 0.5 34 3"></polygon>
                            <polygon points="44.9 0.5 44.9 3.1 39.1 3.1 39.1 5.8 44.3 5.8 44.3 8.3 39.1 8.3 39.1 11 45 11 45 13.6 36.5 13.6 36.5 0.6 44.9 0.6"></polygon>
                            <path d="M57.3,4.8 C57.3,6.9 56.6,8.2 55.1,8.8 L58,13.5 L54.8,13.5 L52.2,9.3 L50.4,9.3 L50.4,13.5 L47.8,13.5 L47.8,0.5 L52.2,0.5 C54,0.5 55.3,0.8 56,1.5 C56.7,2.2 57.3,3.3 57.3,4.8 Z M54.2,6.3 C54.5,6 54.7,5.5 54.7,4.8 C54.7,4.1 54.5,3.6 54.2,3.4 C53.9,3.2 53.3,3 52.5,3 L50.6,3 L50.6,6.9 L52.5,6.9 C53.3,6.8 53.9,6.7 54.2,6.3 Z"></path>
                        </g>
                        <g transform="translate(20.000000, 28.000000)" fill="#443356" id="Shape">
                            <path d="M30.2,7.3 L1.4,7.3 C0.8,7.3 0.4,6.9 0.4,6.3 C0.4,5.7 0.8,5.3 1.4,5.3 L30.2,5.3 C30.8,5.3 31.2,5.7 31.2,6.3 C31.2,6.9 30.7,7.3 30.2,7.3 Z"></path>
                            <path d="M26.2,11.8 C26,11.8 25.7,11.7 25.5,11.5 C25.1,11.1 25,10.5 25.4,10.1 L28.8,6.3 L25.4,2.5 C25,2.1 25.1,1.5 25.5,1.1 C25.9,0.7 26.5,0.8 26.9,1.2 L30.9,5.7 C31.2,6.1 31.2,6.6 30.9,7 L26.9,11.5 C26.8,11.7 26.5,11.8 26.2,11.8 Z"></path>
                        </g>
                    </g>
                    <path d="M409.2,332.4 L382.3,332.4 L382.3,244.4 L409.2,244.4 L409.2,332.4 Z M384.3,330.4 L407.2,330.4 L407.2,246.4 L384.3,246.4 L384.3,330.4 Z" id="Shape" fill="#443356"></path>
                    <ellipse id="Oval" fill="#443356" cx="402.8" cy="290.4" rx="3.1" ry="4.3"></ellipse>
                    <path d="M449.9,88.4 L423,88.4 L423,0.4 L449.9,0.4 L449.9,88.4 Z M425.1,86.4 L448,86.4 L448,2.4 L425.1,2.4 L425.1,86.4 Z" id="Shape" fill="#443356"></path>
                    <ellipse id="Oval" fill="#443356" cx="429.5" cy="46.4" rx="3.1" ry="4.3"></ellipse>
                    <path d="M956.3,45.1 C956,45.1 955.7,44.9 955.6,44.6 C953.6,38.9 948.1,35 942,35 C939.5,35 937,35.7 934.8,37 L934.1,37.4 L933.8,36.6 C931.4,31 925.9,27.3 919.8,27.3 C913.2,27.3 907.4,31.5 905.4,37.8 L905.1,38.8 L904.3,38.2 C902.1,36.6 899.5,35.7 896.8,35.7 C894.9,35.7 893,36.1 891.3,37 L890.2,37.5 L890.2,36.3 C890.2,30.4 885.3,25.6 879.5,25.6 C878.1,25.6 876.7,25.9 875.4,26.4 L874.8,26.7 L874.5,26.1 C872,21.3 867.1,18.3 861.7,18.3 C853.8,18.3 847.3,24.7 847.3,32.7 C847.3,33.5 847.4,34.3 847.5,35.1 L847.8,36.7 L846.4,35.9 C845.2,35.2 843.8,34.8 842.4,34.8 C838,34.8 834.4,38.4 834.4,42.8 C834.4,43.2 834.1,43.6 833.6,43.6 C833.1,43.6 832.8,43.3 832.8,42.8 C832.8,37.5 837.1,33.3 842.3,33.3 C843.5,33.3 844.6,33.5 845.7,33.9 C845.7,33.5 845.6,33 845.6,32.6 C845.6,23.9 852.7,16.7 861.5,16.7 C867.2,16.7 872.4,19.7 875.3,24.7 C876.6,24.2 878,24 879.4,24 C885.7,24 891,28.9 891.6,35 C895.8,33.4 900.6,33.8 904.3,36.2 C906.8,29.8 912.9,25.6 919.8,25.6 C926.2,25.6 932,29.3 934.8,35 C937,33.8 939.5,33.2 942.1,33.2 C948.8,33.2 954.8,37.4 957.1,43.8 C957.2,44.2 957,44.6 956.6,44.8 C956.4,45.1 956.4,45.1 956.3,45.1 Z" id="Shape" fill="#443356" opacity="0.34"></path>
                    <path d="M334.1,132.3 C333.8,132.3 333.5,132.1 333.4,131.8 C331.6,126.8 326.9,123.5 321.6,123.5 C319.4,123.5 317.2,124.1 315.3,125.2 L314.6,125.6 L314.3,124.8 C312.2,119.9 307.5,116.8 302.2,116.8 C296.5,116.8 291.4,120.5 289.7,125.9 L289.4,126.9 L288.6,126.3 C285.3,123.9 281,123.5 277.3,125.3 L276.2,125.8 L276.2,124.6 C276.2,119.5 272,115.4 266.9,115.4 C265.7,115.4 264.5,115.6 263.3,116.1 L262.7,116.4 L262.4,115.8 C260.2,111.6 256,109.1 251.3,109.1 C244.4,109.1 238.8,114.7 238.8,121.6 C238.8,122.3 238.9,123 239,123.7 L239.3,125.3 L237.9,124.5 C236.9,123.9 235.7,123.6 234.5,123.6 C230.7,123.6 227.6,126.7 227.6,130.5 C227.6,130.9 227.3,131.3 226.8,131.3 C226.3,131.3 226,131 226,130.5 C226,125.8 229.8,122.1 234.4,122.1 C235.4,122.1 236.4,122.3 237.3,122.6 C237.3,122.3 237.3,121.9 237.3,121.6 C237.3,113.9 243.6,107.6 251.3,107.6 C256.3,107.6 260.9,110.2 263.4,114.6 C264.5,114.2 265.7,114 266.9,114 C272.4,114 277,118.2 277.6,123.6 C281.2,122.2 285.3,122.6 288.6,124.7 C290.8,119.1 296.1,115.4 302.2,115.4 C307.8,115.4 312.9,118.6 315.4,123.6 C317.4,122.6 319.5,122.1 321.7,122.1 C327.6,122.1 332.9,125.8 334.9,131.4 C335,131.8 334.8,132.2 334.4,132.4 C334.3,132.3 334.2,132.3 334.1,132.3 Z" id="Shape" fill="#443356" opacity="0.34"></path>
                    <path d="M1043.1,135.1 C1042.7,135.1 1042.3,134.8 1042.3,134.3 C1042.3,129.9 1038.7,126.3 1034.3,126.3 C1032.9,126.3 1031.5,126.7 1030.3,127.4 L1028.9,128.2 L1029.2,126.6 C1029.4,125.7 1029.4,124.9 1029.4,124.2 C1029.4,116.3 1023,109.8 1015,109.8 C1009.6,109.8 1004.7,112.8 1002.3,117.6 L1002,118.2 L1001.4,117.9 C1000.1,117.4 998.7,117.1 997.3,117.1 C991.4,117.1 986.6,121.9 986.6,127.8 L986.6,129 L985.5,128.5 C982,126.8 977.9,126.8 974.5,128.5 C974.1,128.7 973.7,128.5 973.5,128.2 C973.3,127.8 973.5,127.4 973.8,127.2 C977.3,125.5 981.5,125.3 985.1,126.8 C985.7,120.6 990.9,115.8 997.3,115.8 C998.7,115.8 1000.1,116 1001.4,116.5 C1004.2,111.6 1009.4,108.5 1015.2,108.5 C1024,108.5 1031.1,115.6 1031.1,124.4 C1031.1,124.8 1031.1,125.3 1031,125.7 C1032.1,125.3 1033.2,125.1 1034.4,125.1 C1039.7,125.1 1043.9,129.4 1043.9,134.6 C1043.9,134.7 1043.5,135.1 1043.1,135.1 Z" id="Shape" fill="#443356" opacity="0.34"></path>
                    <polygon id="Shape" fill="#443356" points="1119.8 324.4 1117.8 324.4 1117.8 311.4 1092.8 311.4 1092.8 226.6 1013.8 226.6 1013.8 321 1011.8 321 1011.8 224.6 1094.8 224.6 1094.8 309.4 1119.8 309.4"></polygon>
                    <polygon id="Shape" fill="#443356" points="979 324.4 977 324.4 977 269.3 1012.8 269.3 1012.8 271.3 979 271.3"></polygon>
                    <path d="M1043.1,226.4 C1042.7,226.4 1042.3,226.1 1042.3,225.6 L1042.3,154.2 L1025.6,154.2 L1025.6,177.4 L973.4,177.4 C973,177.4 972.6,177.1 972.6,176.6 C972.6,176.1 972.9,175.8 973.4,175.8 L1024.1,175.8 L1024.1,152.6 L1043.8,152.6 L1043.8,225.5 C1043.9,226.1 1043.5,226.4 1043.1,226.4 Z" id="Shape" fill="#443356" opacity="0.34"></path>
                    <polygon id="Shape" fill="#443356" points="974.5 244.3 972.5 244.3 972.5 99.1 892 99.1 892 199.6 890 199.6 890 97.1 974.5 97.1"></polygon>
                    <polygon id="Shape" fill="#443356" points="853.4 329.5 851.4 329.5 851.4 197.1 912.4 197.1 912.4 310.4 910.4 310.4 910.4 199.1 853.4 199.1"></polygon>
                    <path d="M891,142.3 L851.7,142.3 L851.7,72.1 L790.7,72.1 C790.3,72.1 789.9,71.8 789.9,71.3 C789.9,70.8 790.2,70.5 790.7,70.5 L853.2,70.5 L853.2,140.7 L891,140.7 C891.4,140.7 891.8,141 891.8,141.5 C891.8,142 891.4,142.3 891,142.3 Z" id="Shape" fill="#443356" opacity="0.34"></path>
                    <polygon id="Shape" fill="#443356" points="289.5 334 287.5 334 287.5 249 343.6 249 343.6 251 289.5 251"></polygon>
                    <polygon id="Shape" fill="#443356" points="312.2 250 310.2 250 310.2 239.6 302.4 239.6 302.4 250 300.4 250 300.4 237.6 312.2 237.6"></polygon>
                    <polygon id="Shape" fill="#443356" points="123.5 244.3 121.5 244.3 121.5 99.1 41 99.1 41 199.6 39 199.6 39 97.1 123.5 97.1"></polygon>
                    <polygon id="Shape" fill="#443356" points="2.4 329.5 0.4 329.5 0.4 197.1 61.4 197.1 61.4 310.4 59.4 310.4 59.4 199.1 2.4 199.1"></polygon>
                    <path d="M33.9,256.6 C33.5,256.6 33.1,256.3 33.1,255.8 L33.1,244.7 C33.1,244.3 33.4,243.9 33.9,243.9 C34.4,243.9 34.7,244.2 34.7,244.7 L34.7,255.8 C34.6,256.3 34.3,256.6 33.9,256.6 Z" id="Shape" fill="#443356" opacity="0.34"></path>
                    <path d="M15.3,276 C14.9,276 14.5,275.7 14.5,275.2 L14.5,264.1 C14.5,263.7 14.8,263.3 15.3,263.3 C15.8,263.3 16.1,263.6 16.1,264.1 L16.1,275.2 C16,275.6 15.7,276 15.3,276 Z" id="Shape" fill="#443356" opacity="0.34"></path>
                    <g transform="translate(55.000000, 86.000000)" fill="#443356" id="Shape">
                        <path d="M1.8,11.5 C1.2,11.5 0.8,11.1 0.8,10.5 L0.8,1.4 C0.8,0.8 1.2,0.4 1.8,0.4 C2.4,0.4 2.8,0.8 2.8,1.4 L2.8,10.5 C2.8,11.1 2.3,11.5 1.8,11.5 Z"></path>
                        <path d="M11.8,11.5 C11.2,11.5 10.8,11.1 10.8,10.5 L10.8,6 C10.8,5.4 11.2,5 11.8,5 C12.4,5 12.8,5.4 12.8,6 L12.8,10.6 C12.8,11.1 12.3,11.5 11.8,11.5 Z"></path>
                    </g>
                    <path d="M74.3,164.2 C73.9,164.2 73.5,163.9 73.5,163.4 L73.5,152.3 C73.5,151.9 73.8,151.5 74.3,151.5 C74.8,151.5 75.1,151.8 75.1,152.3 L75.1,163.4 C75,163.8 74.7,164.2 74.3,164.2 Z" id="Shape" fill="#443356" opacity="0.34"></path>
                    <path d="M101.8,208.1 C101.4,208.1 101,207.8 101,207.3 L101,196.2 C101,195.8 101.3,195.4 101.8,195.4 C102.3,195.4 102.6,195.7 102.6,196.2 L102.6,207.3 C102.5,207.7 102.2,208.1 101.8,208.1 Z" id="Shape" fill="#443356" opacity="0.34"></path>
                    <path d="M101.8,141.9 C101.4,141.9 101,141.6 101,141.1 L101,130 C101,129.6 101.3,129.2 101.8,129.2 C102.3,129.2 102.6,129.5 102.6,130 L102.6,141.1 C102.5,141.6 102.2,141.9 101.8,141.9 Z" id="Shape" fill="#443356" opacity="0.34"></path>
                    <rect id="Rectangle-path" fill="#443356" opacity="0.21" x="47" y="198.1" width="13.4" height="112.2"></rect>
                    <rect id="Rectangle-path" fill="#443356" opacity="0.21" x="89.4" y="99.1" width="33.6" height="144.8"></rect>
                    <polygon id="Shape" fill="#443356" points="31.9 317.2 29.9 317.2 29.9 309.2 74.7 309.2 74.7 242.8 151.6 242.8 151.6 244.8 76.7 244.8 76.7 311.2 31.9 311.2"></polygon>
                    <polygon id="Shape" fill="#443356" points="228.1 330 226.1 330 226.1 73.7 153.2 73.7 153.2 325.5 151.2 325.5 151.2 71.7 228.1 71.7"></polygon>
                    <path d="M273.3,258.1 C272.9,258.1 272.5,257.8 272.5,257.3 L272.5,168.2 L227.1,168.2 C226.7,168.2 226.3,167.9 226.3,167.4 C226.3,166.9 226.6,166.6 227.1,166.6 L274,166.6 L274,257.2 C274,257.8 273.7,258.1 273.3,258.1 Z" id="Shape" fill="#443356" opacity="0.34"></path>
                    <path d="M884.9,256.6 C884.5,256.6 884.1,256.3 884.1,255.8 L884.1,244.7 C884.1,244.3 884.4,243.9 884.9,243.9 C885.4,243.9 885.7,244.2 885.7,244.7 L885.7,255.8 C885.6,256.3 885.3,256.6 884.9,256.6 Z" id="Shape" fill="#443356" opacity="0.34"></path>
                    <path d="M866.3,276 C865.9,276 865.5,275.7 865.5,275.2 L865.5,264.1 C865.5,263.7 865.8,263.3 866.3,263.3 C866.8,263.3 867.1,263.6 867.1,264.1 L867.1,275.2 C867,275.6 866.7,276 866.3,276 Z" id="Shape" fill="#443356" opacity="0.34"></path>
                    <g transform="translate(906.000000, 86.000000)" fill="#443356" id="Shape">
                        <path d="M1.8,11.5 C1.2,11.5 0.8,11.1 0.8,10.5 L0.8,1.4 C0.8,0.8 1.2,0.4 1.8,0.4 C2.4,0.4 2.8,0.8 2.8,1.4 L2.8,10.5 C2.8,11.1 2.3,11.5 1.8,11.5 Z"></path>
                        <path d="M11.8,11.5 C11.2,11.5 10.8,11.1 10.8,10.5 L10.8,6 C10.8,5.4 11.2,5 11.8,5 C12.4,5 12.8,5.4 12.8,6 L12.8,10.6 C12.8,11.1 12.3,11.5 11.8,11.5 Z"></path>
                    </g>
                    <g transform="translate(162.000000, 53.000000)" fill="#443356" id="Shape">
                        <path d="M1.6,20 C1,20 0.6,19.6 0.6,19 L0.6,1.8 C0.6,1.2 1,0.8 1.6,0.8 C2.2,0.8 2.6,1.2 2.6,1.8 L2.6,19 C2.6,19.5 2.2,20 1.6,20 Z"></path>
                        <path d="M11.6,20 C11,20 10.6,19.6 10.6,19 L10.6,10.4 C10.6,9.8 11,9.4 11.6,9.4 C12.2,9.4 12.6,9.8 12.6,10.4 L12.6,19 C12.6,19.5 12.2,20 11.6,20 Z"></path>
                    </g>
                    <path d="M925.3,164.2 C924.9,164.2 924.5,163.9 924.5,163.4 L924.5,152.3 C924.5,151.9 924.8,151.5 925.3,151.5 C925.8,151.5 926.1,151.8 926.1,152.3 L926.1,163.4 C926,163.8 925.7,164.2 925.3,164.2 Z" id="Shape" fill="#443356" opacity="0.34"></path>
                    <path d="M952.8,208.1 C952.4,208.1 952,207.8 952,207.3 L952,196.2 C952,195.8 952.3,195.4 952.8,195.4 C953.3,195.4 953.6,195.7 953.6,196.2 L953.6,207.3 C953.5,207.7 953.2,208.1 952.8,208.1 Z" id="Shape" fill="#443356" opacity="0.34"></path>
                    <path d="M1065.8,300.7 C1065.4,300.7 1065,300.4 1065,299.9 L1065,288.8 C1065,288.4 1065.3,288 1065.8,288 C1066.3,288 1066.6,288.3 1066.6,288.8 L1066.6,300 C1066.6,300.4 1066.2,300.7 1065.8,300.7 Z" id="Shape" fill="#443356" opacity="0.34"></path>
                    <path d="M355.8,308.4 C355.2,308.4 354.8,308 354.8,307.4 L354.8,296.3 C354.8,295.7 355.2,295.3 355.8,295.3 C356.4,295.3 356.8,295.7 356.8,296.3 L356.8,307.4 C356.8,308 356.4,308.4 355.8,308.4 Z" id="Shape" fill="#443356"></path>
                    <path d="M306.3,325.2 C305.9,325.2 305.5,324.9 305.5,324.4 L305.5,313.3 C305.5,312.9 305.8,312.5 306.3,312.5 C306.8,312.5 307.1,312.8 307.1,313.3 L307.1,324.4 C307,324.8 306.7,325.2 306.3,325.2 Z" id="Shape" fill="#443356" opacity="0.34"></path>
                    <path d="M952.8,141.9 C952.4,141.9 952,141.6 952,141.1 L952,130 C952,129.6 952.3,129.2 952.8,129.2 C953.3,129.2 953.6,129.5 953.6,130 L953.6,141.1 C953.5,141.6 953.2,141.9 952.8,141.9 Z" id="Shape" fill="#443356" opacity="0.34"></path>
                    <rect id="Rectangle-path" fill="#443356" opacity="0.21" x="898" y="198.1" width="13.4" height="112.2"></rect>
                    <rect id="Rectangle-path" fill="#443356" opacity="0.21" x="940.4" y="99.1" width="33.6" height="144.8"></rect>
                    <polygon id="Shape" fill="#443356" points="882.9 317.2 880.9 317.2 880.9 309.2 925.7 309.2 925.7 242.8 1002.6 242.8 1002.6 244.8 927.7 244.8 927.7 311.2 882.9 311.2"></polygon>
                    <rect id="Rectangle-path" fill="#443356" opacity="0.21" x="999.6" y="269.7" width="13.3" height="51.3"></rect>
                    <path d="M344.6,295.8 C344,295.8 343.6,295.4 343.6,294.8 L343.6,2.4 C343.6,1.8 344,1.4 344.6,1.4 C345.2,1.4 345.6,1.8 345.6,2.4 L345.6,294.7 C345.6,295.3 345.1,295.8 344.6,295.8 Z" id="Shape" fill="#443356"></path>
                    <path d="M373.7,332.4 L343.6,332.4 L343.6,294.7 C343.6,294.1 344,293.7 344.6,293.7 C345.2,293.7 345.6,294.1 345.6,294.7 L345.6,330.4 L373.7,330.4 C374.3,330.4 374.7,330.8 374.7,331.4 C374.7,332 374.2,332.4 373.7,332.4 Z" id="Shape" fill="#443356"></path>
                    <polygon id="Shape" fill="#DF74E8" opacity="0.43" points="595.7 209.1 568.9 202.6 568.9 215.1 476.3 261.7 476.3 276.7 568.9 230.1 568.9 242.7"></polygon>
                    <g transform="translate(681.000000, 116.000000)">
                        <g transform="translate(5.000000, 6.000000)">
                            <circle id="Oval" fill="#FFFFFF" cx="14.6" cy="14.4" r="13"></circle>
                            <path d="M14.6,28.4 C6.9,28.4 0.6,22.1 0.6,14.4 C0.6,6.7 6.9,0.4 14.6,0.4 C22.3,0.4 28.6,6.7 28.6,14.4 C28.6,22.1 22.3,28.4 14.6,28.4 Z M14.6,2.4 C8,2.4 2.6,7.8 2.6,14.4 C2.6,21 8,26.4 14.6,26.4 C21.2,26.4 26.6,21 26.6,14.4 C26.6,7.8 21.2,2.4 14.6,2.4 Z" id="Shape" fill="#443356"></path>
                        </g>
                        <g>
                            <circle id="Oval" fill="#FFFFFF" cx="19.6" cy="20.4" r="18.6"></circle>
                            <path d="M19.6,39.9 C8.8,39.9 0,31.1 0,20.3 C0,9.5 8.8,0.7 19.6,0.7 C30.4,0.7 39.2,9.5 39.2,20.3 C39.2,31.1 30.4,39.9 19.6,39.9 Z M19.6,2.8 C9.9,2.8 2,10.7 2,20.4 C2,30.1 9.9,38 19.6,38 C29.3,38 37.2,30.1 37.2,20.4 C37.2,10.7 29.2,2.8 19.6,2.8 Z" id="Shape" fill="#443356"></path>
                        </g>
                        <circle id="Oval" fill="#DF74E8" cx="19.6" cy="20.4" r="14.5"></circle>
                        <path d="M16.7,27.3 C16.4,27.3 16.1,27.2 15.8,26.9 L11.9,23 C11.4,22.5 11.4,21.7 11.9,21.2 C12.4,20.7 13.2,20.7 13.7,21.2 L16.7,24.2 L25.6,15.3 C26.1,14.8 26.9,14.8 27.4,15.3 C27.9,15.8 27.9,16.6 27.4,17.1 L17.6,26.9 C17.3,27.2 17,27.3 16.7,27.3 Z" id="Shape" fill="#FFFFFF"></path>
                    </g>
                    <g transform="translate(699.000000, 154.000000)">
                        <path d="M1.6,0.9 L1.6,55.4" id="Shape" fill="#FFFFFF"></path>
                        <rect id="Rectangle-path" fill="#443356" x="0.1" y="0.9" width="3" height="54.5"></rect>
                    </g>
                    <path d="M787.6,332.4 L742.4,332.4 C741.8,332.4 741.4,332 741.4,331.4 C741.4,330.8 741.8,330.4 742.4,330.4 L785.6,330.4 L785.6,2.4 C785.6,1.8 786,1.4 786.6,1.4 C787.2,1.4 787.6,1.8 787.6,2.4 L787.6,332.4 Z" id="Shape" fill="#443356"></path>
                    <g transform="translate(567.000000, 17.000000)" id="Shape">
                        <g transform="translate(0.000000, 17.000000)">
                            <path d="M13.3,29.4 L4.9,22.3 C2,19.8 0.9,15.7 2.4,12.2 C3.9,8.7 6,4.5 8.6,1.4 L15.3,1.4 L12.3,7 L11.3,13.9 L15.3,18.6 L19.1,23.4 L13.3,29.4 Z" fill="#9784D3"></path>
                            <path d="M13.3,30.4 C13.1,30.4 12.8,30.3 12.7,30.2 L4.3,23.1 C1,20.3 -0.1,15.8 1.6,11.8 C3.6,7.1 5.7,3.4 8,0.8 C8.2,0.6 8.5,0.5 8.8,0.5 L15.5,0.5 C15.9,0.5 16.2,0.7 16.4,1 C16.6,1.3 16.6,1.7 16.4,2 L13.5,7.5 L12.6,13.8 L16.3,18.2 L20.1,23 C20.4,23.4 20.4,24 20,24.3 L14.2,30.3 C13.8,30.3 13.6,30.4 13.3,30.4 Z M9.1,2.4 C7.1,4.8 5.1,8.3 3.3,12.6 C2,15.7 2.9,19.4 5.5,21.6 L13.2,28.1 L17.8,23.4 L14.5,19.3 L10.5,14.6 C10.3,14.4 10.2,14.1 10.3,13.8 L11.3,6.9 C11.3,6.8 11.4,6.7 11.4,6.6 L13.6,2.4 L9.1,2.4 Z" fill="#443356"></path>
                        </g>
                        <path d="M11.3,30.9 L12.3,24 L15.3,18.4 L8.7,18.4 C7.4,19.9 6.2,21.8 5.1,23.6 C6.2,27.2 8.6,30.3 11.9,32.3 L13.2,33.1 L11.3,30.9 Z" fill="#443356" opacity="0.53"></path>
                        <g transform="translate(7.000000, 3.000000)">
                            <path d="M11.4,27.3 L9,22.3 C8.7,21.6 7.9,21.1 7.1,21.1 L5.3,21.1 C3.8,21.1 2.5,20.1 2.2,18.6 C1.4,15.3 0.7,9.2 4,4.1 L5.8,2.7 L12.1,1.7 L17.1,8.4 L18,15.2 C18,15.2 17.1,21.2 18.4,23.7 L15.1,26.2 L11.4,27.3 Z" fill="#FFFFFF"></path>
                            <path d="M10.8,28.4 L8.1,22.6 C7.9,22.2 7.6,22 7.1,22 L5.3,22 C3.3,22 1.6,20.7 1.2,18.7 C0.4,15.3 -0.4,8.8 3.1,3.4 L3.2,3.2 L5.4,1.6 L12.6,0.5 L18.1,7.9 L19.1,15.1 L19.1,15.2 C18.9,16.8 18.4,21.3 19.4,23.1 L19.8,23.8 L15.7,26.9 L10.8,28.4 Z M4.7,4.7 C1.7,9.5 2.4,15.3 3.1,18.3 C3.3,19.3 4.2,20 5.3,20 L7.1,20 C8.3,20 9.4,20.7 9.9,21.8 L11.9,26.1 L14.7,25.4 L17.2,23.5 C16.3,20.7 16.9,16.3 17,15.3 L16.1,8.9 L11.6,2.8 L6.1,3.7 L4.7,4.7 Z" fill="#443356"></path>
                        </g>
                        <path d="M25.5,21.3 L25.4,21.3 C22.4,20.4 21.1,17 20.4,14 C20.2,13 19,12.5 18.1,13 L16.9,13.7 L14.9,9.5 C14.9,8.6 14.2,7.9 13.3,7.9 L12.1,7.9 C8.4,7.9 5.9,4.1 7.4,0.8 C7.4,0.8 7.4,0.7 7.5,0.7 L10.7,3.4 L11.5,0.7 L13.1,2.1 C14.6,3.4 18.5,3.1 20.5,3.2 C23,3.3 23.3,3.7 24.4,6 L26.4,7 C28.6,7 30.2,8.9 30,11 C29.8,13.7 27.9,18.6 25.5,21.3 Z" fill="#443356"></path>
                        <g transform="translate(6.000000, 142.000000)" fill="#443356">
                            <path d="M12.9,1.7 L6,4.8 C3.8,5.8 2.2,5.8 1.7,8.2 L1.5,9.4 L20.5,9.4 L20.5,5.6 L12.9,1.7 Z"></path>
                            <path d="M21.5,10.3 L0.2,10.3 L0.7,8 C1.2,5.6 2.7,5 4.3,4.4 C4.7,4.3 5.1,4.1 5.6,3.9 L12.9,0.6 L21.5,5 L21.5,10.3 Z M2.7,8.3 L19.5,8.3 L19.5,6.1 L12.8,2.7 L6.3,5.6 C5.8,5.8 5.3,6 4.9,6.2 C3.6,6.8 3,7.1 2.7,8.3 Z"></path>
                        </g>
                        <g transform="translate(16.000000, 119.000000)">
                            <path d="M13.6,13.4 C13.4,16.9 11.8,26.9 10.8,29.4 C10.8,29.4 5,25.9 1.9,25.5 C1.9,25.5 2.1,9.5 1.6,1" fill="#FFFFFF"></path>
                            <path d="M11.3,30.9 L10.3,30.3 C8.7,29.3 4.2,26.8 1.8,26.5 L0.9,26.4 L0.9,25.5 C0.9,25.3 1.1,9.4 0.6,1.1 C0.6,0.5 1,0.1 1.5,0 C2,0 2.5,0.4 2.6,0.9 C3,8.2 3,21.3 2.9,24.7 C5.3,25.3 8.5,27 10.2,28 C11.1,24.5 12.3,16.4 12.6,13.5 C12.6,12.9 13.1,12.5 13.7,12.6 C14.3,12.6 14.7,13.1 14.6,13.7 C14.3,17.2 12.8,27.4 11.8,30 L11.3,30.9 Z" fill="#443356"></path>
                        </g>
                        <g transform="translate(9.000000, 75.000000)">
                            <path d="M3.9,1 C3.9,1 0.9,19.4 1.2,30.5 C1.3,33.2 2.2,35.9 3.8,38.1 C9.1,45.4 22.7,62.9 29.9,62.2 L31.8,55.6 L17.6,30.8 L20.6,15 L22.8,0.9 L3.9,0.9 L3.9,1 Z" fill="#FFFFFF"></path>
                            <path d="M29.5,63.2 C29.5,63.2 29.5,63.2 29.5,63.2 C22.1,63.2 9.7,47.8 3,38.6 C1.3,36.2 0.3,33.4 0.2,30.5 C-0.1,19.4 2.9,1 2.9,0.8 L3,0 L23.9,0 L21.5,15.2 L18.6,30.7 L32.8,55.5 L30.6,63.2 L29.9,63.3 C29.8,63.2 29.6,63.2 29.5,63.2 Z M4.7,2 C4.1,5.7 1.9,20.9 2.1,30.5 C2.2,33 3,35.4 4.5,37.5 C15.1,52 24.2,60.8 29,61.2 L30.5,55.7 L16.5,31 L19.6,14.8 L21.6,1.9 L4.7,1.9 L4.7,2 Z" fill="#443356"></path>
                        </g>
                        <g transform="translate(10.000000, 25.000000)">
                            <path d="M23.9,10.7 L24,10.8 L20.1,5.4 L16.8,1.6 C16.8,1.6 16.8,1.6 16.8,1.6 L7.6,5.3 L5.3,12.7 C1.4,25.7 1,41.7 1.5,48.5 C1.7,50.7 2.9,51.1 2.9,51.1 L16,51.1 L16,53 L23.5,53 C27.8,34.9 26.1,20.9 26.1,20.9 C25.7,17 26,13 23.9,10.7 Z" fill="#9784D3"></path>
                            <path d="M23.5,53.8 L16,53.8 C15.4,53.8 15,53.4 15,52.8 L15,52 L2.8,52 C2.7,52 2.6,52 2.5,52 C2.3,51.9 0.6,51.4 0.4,48.6 C-0.2,41.4 0.3,25.3 4.2,12.5 L6.5,5.1 C6.6,4.8 6.8,4.6 7.1,4.5 L16.3,0.8 C16.7,0.6 17.2,0.8 17.4,1.1 L20.7,4.9 L24.6,10.3 C24.7,10.4 24.8,10.5 24.8,10.7 C26.3,12.7 26.5,15.6 26.7,18.3 C26.8,19.1 26.8,19.9 26.9,20.7 C26.9,20.8 28.6,35.2 24.3,53.2 C24.4,53.5 24,53.8 23.5,53.8 Z M17,51.8 L22.7,51.8 C26.7,34.5 25.1,20.9 25.1,20.8 C25,20 24.9,19.1 24.9,18.3 C24.7,15.6 24.5,13 23.2,11.4 C23.1,11.3 23,11.2 23,11.1 L19.4,6.1 L16.6,2.9 L8.5,6.1 L6.3,13 C2.5,25.5 2,41.4 2.6,48.4 C2.7,49.5 3,49.9 3.2,50 L16,50 C16.6,50 17,50.4 17,51 L17,51.8 Z" fill="#443356"></path>
                        </g>
                        <g transform="translate(24.000000, 76.000000)">
                            <path d="M3,1.8 C1.8,3.2 1,5 1,6.8 C1,8.5 1.4,10.2 2.2,11.8 C3.2,13.9 5.8,14.7 7.8,13.5 L10,12.2 L8.4,11.1 L9.5,1.8 L3,1.8 Z" fill="#FFFFFF"></path>
                            <path d="M5.8,15 C5.8,15 5.8,15 5.8,15 C3.9,15 2.1,13.9 1.3,12.2 C0.5,10.5 0,8.7 0,6.8 C0,4.8 0.8,2.7 2.3,1.1 L2.6,0.8 L10.7,0.8 L9.5,10.6 L11.9,12.3 L8.3,14.3 C7.6,14.8 6.7,15 5.8,15 Z M3.5,2.8 C2.5,4 2,5.4 2,6.8 C2,8.4 2.4,9.9 3.1,11.3 C3.6,12.3 4.7,13 5.8,13 C6.3,13 6.8,12.9 7.3,12.6 L8.1,12.1 L7.3,11.5 L8.4,2.7 L3.5,2.7 L3.5,2.8 Z" fill="#443356"></path>
                        </g>
                        <path d="M28.5,95.4 L29.5,90 C22.5,87.2 26.4,78.6 26.4,78.6 L26.4,65.6 L24.2,45.4 L23.5,44.2 C23.5,48.2 23.2,64.1 19.5,72.2 C18.2,75 18.3,78.3 20,80.9 L20.1,81.1 L21.2,87.4 C21.6,89.8 22.7,92 24.4,93.7 C25.7,94.7 27.1,95.6 28.5,95.4 Z" fill="#443356" opacity="0.53"></path>
                    </g>
                    <g transform="translate(604.000000, 146.000000)" fill="#443356" id="Shape">
                        <path d="M1.9,8.2 L3.3,19 C3.6,21.2 4.8,23.1 6.6,24.2 C6.6,24.2 10.4,15 10.2,6.6 C10.2,4.7 8.9,3.1 7,2.6 L3.7,1.6 L1.9,8.2 Z"></path>
                        <path d="M6.6,25.2 C6.4,25.2 6.2,25.1 6.1,25 C4,23.7 2.6,21.5 2.3,19 L0.9,8.2 C0.9,8.1 0.9,7.9 0.9,7.8 L2.8,1.2 C2.9,0.9 3,0.7 3.3,0.6 C3.5,0.5 3.8,0.4 4.1,0.5 L7.4,1.5 C9.6,2.1 11.2,4.2 11.3,6.5 C11.5,15 7.8,24.1 7.6,24.5 C7.5,24.8 7.3,25 7,25.1 C6.8,25.2 6.7,25.2 6.6,25.2 Z M2.9,8.2 L4.3,18.8 C4.5,20.2 5.2,21.6 6.2,22.5 C7.2,19.7 9.4,12.9 9.2,6.5 C9.2,5.1 8.2,3.8 6.8,3.4 L4.4,2.7 L2.9,8.2 Z"></path>
                    </g>
                    <polygon id="Shape" fill="#443356" opacity="0.21" points="212.4 321.6 227.1 331.6 227.1 72.7 212.4 72.7"></polygon>
                    <rect id="Rectangle-path" fill="#443356" opacity="0.58" x="152.2" y="97.1" width="60.2" height="2"></rect>
                    <rect id="Rectangle-path" fill="#443356" opacity="0.58" x="152.2" y="127.1" width="60.2" height="2"></rect>
                    <rect id="Rectangle-path" fill="#443356" opacity="0.58" x="152.2" y="157.1" width="60.2" height="2"></rect>
                    <rect id="Rectangle-path" fill="#443356" opacity="0.58" x="152.2" y="187.2" width="60.2" height="2"></rect>
                    <rect id="Rectangle-path" fill="#443356" opacity="0.58" x="152.2" y="217.2" width="60.2" height="2"></rect>
                    <rect id="Rectangle-path" fill="#443356" opacity="0.58" x="152.2" y="247.3" width="60.2" height="2"></rect>
                    <rect id="Rectangle-path" fill="#443356" opacity="0.58" x="152.2" y="277.3" width="60.2" height="2"></rect>
                    <rect id="Rectangle-path" fill="#443356" opacity="0.58" x="152.2" y="307.4" width="60.2" height="2"></rect>
                    <g transform="translate(1057.000000, 201.000000)" fill="#443356">
                        <g>
                            <path d="M24.9,19.6 L4.9,19.6 C4.3,19.6 3.9,19.2 3.9,18.6 L3.9,7.5 C3.9,6.9 4.3,6.5 4.9,6.5 L24.9,6.5 C25.5,6.5 25.9,6.9 25.9,7.5 L25.9,18.6 C25.9,19.2 25.5,19.6 24.9,19.6 Z M5.9,17.6 L23.9,17.6 L23.9,8.5 L5.9,8.5 L5.9,17.6 Z" id="Shape"></path>
                            <rect id="Rectangle-path" transform="translate(7.389545, 21.662945) rotate(15.991830) translate(-7.389545, -21.662945) " x="6.38954603" y="18.5129482" width="1.99999794" height="6.29999351"></rect>
                            <rect id="Rectangle-path" transform="translate(22.457500, 21.608450) rotate(74.026272) translate(-22.457500, -21.608450) " x="19.3074606" y="20.6084375" width="6.30007875" height="2.000025"></rect>
                            <polygon id="Shape" opacity="0.32" points="4.9 7.5 4.9 10.6 20.1 10.6 20.1 18.6 24.9 18.6 24.9 10.6 24.9 9 24.9 7.5"></polygon>
                            <path d="M28.6,19.6 L1.2,19.6 C0.6,19.6 0.2,19.2 0.2,18.6 L0.2,15.2 C0.2,14.6 0.6,14.2 1.2,14.2 L28.6,14.2 C29.2,14.2 29.6,14.6 29.6,15.2 L29.6,18.6 C29.6,19.2 29.2,19.6 28.6,19.6 Z M2.2,17.6 L27.6,17.6 L27.6,16.2 L2.2,16.2 L2.2,17.6 Z" id="Shape"></path>
                            <path d="M24.4,8.3 L14.9,3.1 L5.4,8.3 L4.4,6.5 L14.4,1.1 C14.7,0.9 15.1,0.9 15.4,1.1 L25.4,6.5 L24.4,8.3 Z" id="Shape"></path>
                        </g>
                        <path d="M15.7,22.6 C15.2,22.6 14.9,22.6 14.9,22.6 C14.9,22.6 14.9,22.6 14.9,22.6 C7.2,22.6 4.3,19.4 4.2,19.2 L2.8,17.5 L26.6,17.5 L25.9,18.9 C24.3,22.2 18.8,22.6 15.7,22.6 Z M8.6,19.6 C10.1,20.1 12.1,20.6 15,20.6 C15.1,20.6 15.3,20.6 15.7,20.6 C18,20.6 20.6,20.3 22.3,19.6 L8.6,19.6 Z" id="Shape"></path>
                    </g>
                    <path d="M1030.3,249.5 L1018.8,249.5 L1018.8,237.6 L1030.3,237.6 L1030.3,249.5 Z M1020.7,247.5 L1028.2,247.5 L1028.2,239.6 L1020.7,239.6 L1020.7,247.5 Z" id="Shape" fill="#443356"></path>
                    <path d="M1048.9,249.5 L1037.4,249.5 L1037.4,237.6 L1048.9,237.6 L1048.9,249.5 Z M1039.3,247.5 L1046.8,247.5 L1046.8,239.6 L1039.3,239.6 L1039.3,247.5 Z" id="Shape" fill="#443356"></path>
                    <path d="M1067.5,249.5 L1056,249.5 L1056,237.6 L1067.5,237.6 L1067.5,249.5 Z M1057.9,247.5 L1065.4,247.5 L1065.4,239.6 L1057.9,239.6 L1057.9,247.5 Z" id="Shape" fill="#443356"></path>
                    <path d="M1086.1,249.5 L1074.6,249.5 L1074.6,237.6 L1086.1,237.6 L1086.1,249.5 Z M1076.5,247.5 L1084,247.5 L1084,239.6 L1076.5,239.6 L1076.5,247.5 Z" id="Shape" fill="#443356"></path>
                    <path d="M1030.3,268.2 L1018.8,268.2 L1018.8,256.3 L1030.3,256.3 L1030.3,268.2 Z M1020.7,266.2 L1028.2,266.2 L1028.2,258.3 L1020.7,258.3 L1020.7,266.2 Z" id="Shape" fill="#443356"></path>
                    <path d="M1048.9,268.2 L1037.4,268.2 L1037.4,256.3 L1048.9,256.3 L1048.9,268.2 Z M1039.3,266.2 L1046.8,266.2 L1046.8,258.3 L1039.3,258.3 L1039.3,266.2 Z" id="Shape" fill="#443356"></path>
                    <path d="M1067.5,268.2 L1056,268.2 L1056,256.3 L1067.5,256.3 L1067.5,268.2 Z M1057.9,266.2 L1065.4,266.2 L1065.4,258.3 L1057.9,258.3 L1057.9,266.2 Z" id="Shape" fill="#443356"></path>
                    <path d="M1086.1,268.2 L1074.6,268.2 L1074.6,256.3 L1086.1,256.3 L1086.1,268.2 Z M1076.5,266.2 L1084,266.2 L1084,258.3 L1076.5,258.3 L1076.5,266.2 Z" id="Shape" fill="#443356"></path>
                    <path d="M1048.9,287 L1037.4,287 L1037.4,275.1 L1048.9,275.1 L1048.9,287 Z M1039.3,285 L1046.8,285 L1046.8,277.1 L1039.3,277.1 L1039.3,285 Z" id="Shape" fill="#443356"></path>
                    <path d="M1067.5,287 L1056,287 L1056,275.1 L1067.5,275.1 L1067.5,287 Z M1057.9,285 L1065.4,285 L1065.4,277.1 L1057.9,277.1 L1057.9,285 Z" id="Shape" fill="#443356"></path>
                    <path d="M1086.1,287 L1074.6,287 L1074.6,275.1 L1086.1,275.1 L1086.1,287 Z M1076.5,285 L1084,285 L1084,277.1 L1076.5,277.1 L1076.5,285 Z" id="Shape" fill="#443356"></path>
                    <path d="M1067.5,305.7 L1056,305.7 L1056,293.8 L1067.5,293.8 L1067.5,305.7 Z M1057.9,303.7 L1065.4,303.7 L1065.4,295.8 L1057.9,295.8 L1057.9,303.7 Z" id="Shape" fill="#443356"></path>
                    <path d="M1086.1,305.7 L1074.6,305.7 L1074.6,293.8 L1086.1,293.8 L1086.1,305.7 Z M1076.5,303.7 L1084,303.7 L1084,295.8 L1076.5,295.8 L1076.5,303.7 Z" id="Shape" fill="#443356"></path>
                    <path d="M1086.1,324.4 L1074.6,324.4 L1074.6,312.5 L1086.1,312.5 L1086.1,324.4 Z M1076.5,322.4 L1084,322.4 L1084,314.5 L1076.5,314.5 L1076.5,322.4 Z" id="Shape" fill="#443356"></path>
                    <path d="M152.3,270.4 L80.5,270.4 L80.5,263 L152.3,263 L152.3,270.4 Z M82,268.9 L150.8,268.9 L150.8,264.5 L82,264.5 L82,268.9 Z" id="Shape" fill="#443356"></path>
                    <path d="M152.3,294.1 L80.5,294.1 L80.5,286.7 L152.3,286.7 L152.3,294.1 Z M82,292.6 L150.8,292.6 L150.8,288.2 L82,288.2 L82,292.6 Z" id="Shape" fill="#443356"></path>
                    <rect id="Rectangle-path" fill="#443356" opacity="0.21" x="136.6" y="243.8" width="15.6" height="81.6"></rect>
                    <polygon id="Shape" fill="#443356" points="1233.6 329.5 1231.6 329.5 1231.6 276 1175.6 276 1175.6 132.2 1126 132.2 1118.4 124.6 1072.9 124.6 1072.9 203 1070.9 203 1070.9 122.6 1119.2 122.6 1126.8 130.2 1177.6 130.2 1177.6 274 1233.6 274"></polygon>
                    <path d="M1086.1,124.6 L1079.4,124.6 L1079.4,112.3 L1086.1,112.3 L1086.1,124.6 Z M1081.3,122.6 L1084,122.6 L1084,114.3 L1081.3,114.3 L1081.3,122.6 Z" id="Shape" fill="#443356"></path>
                    <path d="M1099.6,124.6 L1092.9,124.6 L1092.9,117.5 L1099.6,117.5 L1099.6,124.6 Z M1094.9,122.6 L1097.6,122.6 L1097.6,119.5 L1094.9,119.5 L1094.9,122.6 Z" id="Shape" fill="#443356"></path>
                    <rect id="Rectangle-path" fill="#443356" opacity="0.21" x="1154.3" y="131.2" width="22.3" height="144.8"></rect>
                    <rect id="Rectangle-path" fill="#443356" opacity="0.21" x="1191.9" y="274.5" width="40.8" height="53.1"></rect>
                    <g transform="translate(1078.000000, 139.000000)" fill="#443356" id="Shape">
                        <path d="M67.9,12.6 L56.4,12.6 L56.4,0.7 L67.9,0.7 L67.9,12.6 Z M58.4,10.6 L65.9,10.6 L65.9,2.7 L58.4,2.7 L58.4,10.6 Z"></path>
                        <path d="M49.3,12.6 L37.8,12.6 L37.8,0.7 L49.3,0.7 L49.3,12.6 Z M39.8,10.6 L47.3,10.6 L47.3,2.7 L39.8,2.7 L39.8,10.6 Z"></path>
                        <path d="M30.8,12.6 L19.3,12.6 L19.3,0.7 L30.8,0.7 L30.8,12.6 Z M21.2,10.6 L28.7,10.6 L28.7,2.7 L21.2,2.7 L21.2,10.6 Z"></path>
                        <path d="M12.2,12.6 L0.7,12.6 L0.7,0.7 L12.2,0.7 L12.2,12.6 Z M2.6,10.6 L10.1,10.6 L10.1,2.7 L2.6,2.7 L2.6,10.6 Z"></path>
                        <path d="M67.9,31.3 L56.4,31.3 L56.4,19.4 L67.9,19.4 L67.9,31.3 Z M58.4,29.3 L65.9,29.3 L65.9,21.4 L58.4,21.4 L58.4,29.3 Z"></path>
                        <path d="M49.3,31.3 L37.8,31.3 L37.8,19.4 L49.3,19.4 L49.3,31.3 Z M39.8,29.3 L47.3,29.3 L47.3,21.4 L39.8,21.4 L39.8,29.3 Z"></path>
                        <path d="M30.8,31.3 L19.3,31.3 L19.3,19.4 L30.8,19.4 L30.8,31.3 Z M21.2,29.3 L28.7,29.3 L28.7,21.4 L21.2,21.4 L21.2,29.3 Z"></path>
                        <path d="M12.2,31.3 L0.7,31.3 L0.7,19.4 L12.2,19.4 L12.2,31.3 Z M2.6,29.3 L10.1,29.3 L10.1,21.4 L2.6,21.4 L2.6,29.3 Z"></path>
                        <path d="M49.3,50 L37.8,50 L37.8,38.1 L49.3,38.1 L49.3,50 Z M39.8,48 L47.3,48 L47.3,40.1 L39.8,40.1 L39.8,48 Z"></path>
                        <path d="M30.8,50 L19.3,50 L19.3,38.1 L30.8,38.1 L30.8,50 Z M21.2,48 L28.7,48 L28.7,40.1 L21.2,40.1 L21.2,48 Z"></path>
                        <path d="M12.2,50 L0.7,50 L0.7,38.1 L12.2,38.1 L12.2,50 Z M2.6,48 L10.1,48 L10.1,40.1 L2.6,40.1 L2.6,48 Z"></path>
                        <path d="M30.8,68.8 L19.3,68.8 L19.3,56.9 L30.8,56.9 L30.8,68.8 Z M21.2,66.8 L28.7,66.8 L28.7,58.9 L21.2,58.9 L21.2,66.8 Z"></path>
                        <path d="M12.2,68.8 L0.7,68.8 L0.7,56.9 L12.2,56.9 L12.2,68.8 Z M2.6,66.8 L10.1,66.8 L10.1,58.9 L2.6,58.9 L2.6,66.8 Z"></path>
                    </g>
                </g>
                <g transform="translate(589.000000, 57.000000)" id="Shape">
                    <path d="M3.4,19.7 L4.6,37.8 L11.1,37.8 C11.1,37.8 13.9,25.7 13.9,19.7 L3.4,19.7 C3.4,19.7 3.2,8.7 1.2,1.7" fill="#FFFFFF"></path>
                    <path d="M11.9,38.8 L3.7,38.8 L2.5,20.7 L2.4,20.7 L2.4,19.7 C2.4,19.7 2.4,19.7 2.4,19.7 C2.4,19.4 2.2,8.7 0.3,2 C0.1,1.5 0.5,0.9 1,0.8 C1.5,0.6 2.1,1 2.2,1.5 C3.9,7.4 4.3,15.9 4.4,18.8 L14.9,18.8 L14.9,19.8 C14.9,25.8 12.2,37.6 12.1,38.1 L11.9,38.8 Z M5.5,36.8 L10.2,36.8 C10.8,34.2 12.5,25.8 12.8,20.7 L4.4,20.7 L5.5,36.8 Z" fill="#443356"></path>
                </g>
                <path d="M586.8,51.1 C586.5,51.1 586.3,51 586.1,50.8 L583.5,47.9 C583.1,47.5 583.2,46.9 583.6,46.5 C584,46.1 584.6,46.2 585,46.6 L587.1,48.9 L595,45 C595.5,44.8 596.1,45 596.3,45.5 C596.5,46 596.3,46.6 595.8,46.8 L587.2,51 C587.1,51.1 587,51.1 586.8,51.1 Z" id="Shape" fill="#443356"></path>
                <path d="M592,71.8 C591.5,71.8 591.1,71.4 591,70.9 C590.9,70.4 591.3,69.8 591.8,69.8 L598.5,68.8 C599.1,68.7 599.6,69.1 599.6,69.6 C599.7,70.1 599.3,70.7 598.8,70.7 L592.1,71.7 C592.1,71.8 592.1,71.8 592,71.8 Z" id="Shape" fill="#443356"></path>
                <rect id="Rectangle-path" fill="#443356" opacity="0.21" x="320.3" y="250" width="24.2" height="81.4"></rect>
                <rect id="Rectangle-path" fill="#443356" opacity="0.21" x="1093.8" y="310.4" width="25" height="14"></rect>
            </g>
        </g>
    </g>
</svg>