<?xml version="1.0" encoding="utf-8"?>
<!-- Generator: Adobe Illustrator 21.1.0, SVG Export Plug-In . SVG Version: 6.00 Build 0)  -->
<svg version="1.1" id="Lager_1" xmlns="http://www.w3.org/2000/svg" xmlns:xlink="http://www.w3.org/1999/xlink" x="0px" y="0px"
	 viewBox="0 0 985.7 395.1" style="enable-background:new 0 0 985.7 395.1;" xml:space="preserve">
<style type="text/css">
	.st0{clip-path:url(#SVGID_2_);}
	.st1{clip-path:url(#SVGID_2_);fill:#FFFFFF;}
	.st2{fill:#FFFFFF;}
</style>
<g>
	<defs>
		<rect id="SVGID_1_" x="0" width="985.7" height="395.1"/>
	</defs>
	<clipPath id="SVGID_2_">
		<use xlink:href="#SVGID_1_"  style="overflow:visible;"/>
	</clipPath>
	<path class="st0" d="M782.6,255.9c-1.1,0-2.7,0-4.8,0.1c-2.1,0-4,0.1-5.6,0.2c-1.6,0.1-3,0.2-4.3,0.4c0.5-0.7,1-1.3,1.5-2
		c6-7.4,14.1-17.7,24.1-31l3.7-4.9C793.5,231.4,788.6,243.8,782.6,255.9 M766.3,279.2c-1.3,0.2-2.1-1.2-2.5-4.2
		c-0.4-2.7-0.1-4.7,0.9-5.9c3.3-0.5,7-0.6,11-0.3C771.8,275.4,768.7,278.8,766.3,279.2 M728.3,242.6c7-7.8,12.4-12,16-12.5
		c0.8-0.1,1.2,0.3,1.4,1.3c0.2,1.1-0.8,3.2-3,6.4c-2.1,3.2-5.8,7.4-11,12.8c-5.2,5.3-11.2,10.7-18,16.1
		C716.4,258.5,721.3,250.5,728.3,242.6 M511.3,293.8c-5,0.1-10.1,0.3-15.1,0.7c0.8-1.1,1.6-2.1,2.3-3.2c7.4-9.1,16.4-20.6,27.1-34.7
		C522.2,268.8,517.4,281.2,511.3,293.8 M494.8,317.1c-1.3,0.2-2.1-1.2-2.5-4.2c-0.4-2.7-0.1-4.7,0.9-5.9c2.5-0.4,6.2-0.5,11-0.6
		C500,313.3,496.8,316.8,494.8,317.1 M448.4,290.1c-7.9,9.3-14.9,17.1-20.7,23.3c-5.9,6.2-11.4,11.3-16.7,15.2
		c1.7-7.2,8.9-18.6,21.6-34.4c12.7-15.8,22-24.1,28-24.9c1.3-0.2,2.1,1,2.7,3.5C461.3,275,456.4,280.8,448.4,290.1 M377.1,291.7
		c7-7.8,12.4-12,16-12.5c0.8-0.1,1.2,0.3,1.4,1.3c0.2,1.1-0.8,3.3-3,6.4c-2.1,3.2-5.8,7.4-11,12.8s-11.2,10.7-18,16.1
		C365.2,307.6,370,299.5,377.1,291.7 M336.3,272.9c10.8-15.7,20.6-28.6,29.7-38.8c9-10.2,14.5-15.4,16.4-15.7c0.3,0,0.5,0.2,0.6,0.6
		c0.6,4.4-7.7,18.2-24.9,41.3c-17.2,23.1-32.1,41-44.9,53.5C317.9,302.3,325.6,288.6,336.3,272.9 M269.6,288.4
		c-17.3,12-30.5,18.6-39.7,19.9c-3.5,0.5-5.9-0.2-7.3-2.1c24.8-35.3,47.1-64,66.8-86c1.6-1.5,2.3-2.7,2.1-3.7l-0.3-0.4l-0.1-0.7
		c7.2-1.3,12.7-2.3,16.5-2.8c8-1.1,14.5-1.2,19.3-0.2c4.8,1,7.4,2.8,7.7,5.3c0.9,6.6-5.4,17.1-18.9,31.3
		C302.3,263.3,286.9,276.4,269.6,288.4 M816.8,204.5c-1.4-1.5-3.5-2.4-6.3-2.9c-2.2-1.6-4.4-2.3-6.8-1.9c-1.1,0.2-3,1.9-5.8,5.2
		c-1.5,1.7-3.4,3.9-5.7,6.7c-2.3,2.8-3.8,4.7-4.6,5.6L767,240.5c-0.6,0.6-1.1,1.3-1.5,1.9c-0.8,0.9-1.7,1.9-2.6,3
		c-23.5,27.1-38.3,41-44.3,41.9c-3.3,0.5-5.4-2.1-6.1-7.6l4.6-3.5c15-11.3,25.6-21.3,31.8-30.1c6.2-8.8,9-15.7,8.3-20.6
		c-0.4-3-2.2-5.1-5.2-6.4c-3.1-1.3-6.6-1.6-10.5-1.1c-9.9,1.4-20.3,9.7-31,25c-3,4.3-5.5,8.6-7.5,12.8c-5.9,6.8-13,14.6-21.4,23.5
		c-9.4,9.9-15.2,15-17.4,15.3c-0.5,0.1-0.7-0.1-0.8-0.6c-0.1-0.8,0.4-2.3,1.5-4.6c1.1-2.3,2.8-4.9,4.9-8c2.1-3.1,4.1-5.9,5.8-8.4
		c1.7-2.5,3.7-5.2,5.9-8.2c2.2-3,3.4-4.6,3.7-5c3.2-4.6,6.4-8.7,9.5-12.3l6.2-7.1c1-1.2,1.5-2.3,1.4-3.2c-0.2-1.7-1.4-3.4-3.3-4.8
		c-0.4-1.9-1.6-3.1-3.6-3.6c-2-0.5-3.7-0.7-5.1-0.5c-1.6,0.2-3.7,0.9-6.5,2c-2.7,1.1-4.7,1.8-6,2.2c-0.7-0.4-1.2-1.1-1.6-2.2
		c-0.4-1.1-0.8-1.9-1.3-2.6c-0.5-0.7-1.3-0.9-2.4-0.8c-6,0.8-8.8,3.3-8.4,7.4l-18.1,20.5c-0.1,0.1-0.1,0.1-0.2,0.2l-2.4,2.7
		c-0.4,0.4-0.8,0.9-1.1,1.4c-0.9,1.1-1.9,2.3-3,3.6c-6.2,7.3-14,15.9-23.4,25.8c-9.4,9.9-15.2,15-17.4,15.3
		c-0.5,0.1-0.7-0.1-0.8-0.6c-0.2-1.6,1.9-6.3,6.3-14.2c4.4-7.9,8.1-13.9,10.8-18.2c1.7-2.7,4.1-6,7-10c3-4,5.3-7.2,6.9-9.6
		c1.6-2.4,2.3-4,2.2-4.8c-0.2-1.3-1.8-3-4.8-5.2c-3-2.2-5.2-3.3-6.5-3.1c-0.2,0-2.1,2.5-5.7,7.3c-28.9,38.3-46.5,58.8-52.9,61.7
		c1.4-5.2,5-12.3,10.8-21.3c5.8-9,11.2-16.9,16.2-23.7c5-6.8,7.4-10.7,7.3-11.6c-0.2-1.1-1.6-3.2-4.2-6.2c-1.6-2-3.9-2.8-6.9-2.4
		c-2.4,0.3-5.3,3-8.8,8c-4.6,6.5-8.4,11.9-11.5,16.3c-0.6,0.7-1.3,1.5-2.1,2.4c-4,4.7-9.1,9.7-15.2,14.9c-6.1,5.2-11.9,8.3-17.4,9.2
		c4.1-8.9,8.5-19.8,13.3-32.7c3.6-7.7,5.3-12.2,5.1-13.5c-0.2-1.3-1-2.6-2.4-4.1c-1.4-1.5-3.5-2.4-6.3-2.9c-2.2-1.6-4.4-2.3-6.8-1.9
		c-1.1,0.2-3,1.9-5.8,5.1c-1.5,1.7-3.4,3.9-5.7,6.7c-2.3,2.8-3.8,4.7-4.6,5.6l-17.8,20.2c-0.2,0.2-0.4,0.5-0.6,0.7l-2.2,2.5
		c-0.5,0.5-0.9,1.1-1.3,1.6c-0.9,1-1.8,2.1-2.8,3.3c-6.2,7.3-14,15.9-23.4,25.8c-9.4,9.9-15.2,15-17.4,15.3
		c-0.5,0.1-0.7-0.1-0.8-0.6c-0.4-2.5,2.5-8.9,8.7-19.1c6.1-10.2,12.1-19,17.7-26.6c0.8-1.1,2.4-3,4.6-5.8c2.3-2.8,3.7-4.7,4.4-5.8
		c0.7-1.1,0.9-1.9,0.9-2.5c-0.2-1.6-1-2.9-2.2-3.9c-1.3-1-2.7-1.4-4.3-1.2c-1.1,0.2-2.9,1.2-5.4,3.2c-2.3-2.9-5.2-5-8.6-6.3
		c-2.4-0.8-4.3-1.1-5.9-0.9c-7.1,1-15.9,6.2-26.4,15.7c-6.5,5.9-12.3,12.3-17.6,19.1c-1.2,1.4-2.5,2.9-4,4.7
		c-23.6,27.1-38.3,41-44.3,41.9c-3.3,0.5-5.4-2.1-6.1-7.6l4.6-3.5c15-11.3,25.6-21.3,31.8-30.1c6.2-8.8,9-15.7,8.3-20.6
		c-0.4-3-2.2-5.1-5.2-6.4c-3.1-1.3-6.6-1.6-10.5-1.1c-9.9,1.4-20.3,9.7-31,25c-3,4.3-5.5,8.6-7.5,12.8c-5.9,6.8-13,14.6-21.4,23.5
		c-9.4,9.9-15.2,15-17.4,15.3c-1.7,0.2-2.9-2.1-3.6-7c-0.3-1.9-0.3-4-0.2-6.3c21.4-19.5,42.2-43,62.5-70.2
		c20.3-27.3,29.9-44.8,28.8-52.5c-0.5-3.5-1.9-6.5-4.2-9.1c-2.3-2.6-4.9-3.7-7.7-3.3c-4.1,0.6-12.6,7.4-25.6,20.6
		c-4.3,4.3-8.3,8.7-12.2,13.2c0.7-3.2,0.9-6.2,0.5-9c-0.5-3.8-2-7.4-4.5-10.7c-2.5-3.4-5.1-5.6-7.8-6.9c-2.8-4.1-7-6.7-12.4-7.7
		c-5.4-1-13.2-0.8-23.3,0.6c-17.2,2.4-40.5,7.9-69.9,16.6c-29.4,8.7-56.4,19.4-81,32.2c-4.5,2.2-6.2,7.3-5.1,15.2
		c0.2,1.1,0.7,1.8,1.7,2.2c-0.4,0.5-0.6,1.1-0.5,1.8c0,0.3,0.5,0.8,1.3,1.4c0.8,0.6,1.9,1.1,3.2,1.5c1.3,0.4,2.7,0.5,4.1,0.3
		c1.9-0.3,4.2-1.2,7-2.7c2.8-1.5,7.1-3.8,13-6.9c5.9-3.1,12.5-6.1,19.6-9c-7.3,1-15.6,2.7-25.1,5.2c34.6-15,66.5-25.9,95.7-32.9
		c-20.3,22.6-44,52.6-71,89.9c-27,37.3-40.2,58.2-39.6,62.6c0.3,2.4,2.1,5,5.3,7.9c3.2,2.9,5.9,4.2,7.9,4c2.4-0.3,4-2.1,5.1-5.3
		c10-17.2,22.3-36.4,37-57.7c4.5,4.7,10.6,6.5,18.4,5.4c12.5-1.7,28.6-9,48.3-21.7c14-9,26.7-19,38.3-30c-5,8.7-9.5,17.6-13.4,26.7
		c-6.5,15.4-9,27.9-7.6,37.7c0.7,5.4,2.8,10.3,6.2,14.8c3.4,4.5,7.1,6.5,11.2,5.9c4.6-0.6,15.4-10.9,32.2-30.8c0,2.3,0.1,4.7,0.4,7
		c0.9,6.8,3.4,11.4,7.2,13.8c3.9,2.4,8,3.3,12.4,2.7c3.2-0.4,6.2-1.4,9.2-3c3-1.5,6.2-4,9.7-7.5c3.5-3.5,6.2-6.2,8.1-8.3
		c0.9-1,2.2-2.3,3.6-4c0,0.5,0,0.9,0.1,1.4c0.5,3.3,2.4,6.4,5.9,9.2c3.4,2.8,6.7,4,9.7,3.6c2.2-0.3,4.8-2,7.9-5.1
		c3-3.1,6.5-7.1,10.4-12.2c3.9-5,6.8-8.6,8.8-10.6c-2,6.5-2.7,11.7-2.2,15.5c0.5,3.3,2.2,5.8,5.1,7.4c3,1.6,6,2.2,9.2,1.7
		c4.4-0.6,14.5-10.1,30.2-28.5c0.1,1.2,0.2,2.4,0.4,3.7c0.7,4.9,2.5,9,5.6,12.2c3,3.3,6.9,4.6,11.6,3.9c6.9-1,14.7-9.5,23.4-25.7
		l4.3-0.6c6.9-1,13.2-3.3,19-7c-1.5,4.2-2.1,7.6-1.7,10.1c0.5,3.5,2.4,6.8,5.6,9.9c3.3,3.2,6.5,4.5,9.6,4.1c1.4-0.2,2.9-0.8,4.6-1.8
		c1.6-1,3.4-2.5,5.3-4.4c1.9-1.9,3.6-3.6,4.9-5.2c1.4-1.6,3.2-3.7,5.5-6.4c2.3-2.7,3.9-4.6,4.9-5.7c-0.6,1.7-0.7,3.8-0.3,6.3
		c0.5,3.5,2.4,6.8,5.9,10c3.4,3.2,6.5,4.6,9.2,4.3c5.2-0.7,18.1-13.6,38.7-38.7c3-3.7,5.6-7,7.9-10.1c5.9-7.2,13.7-17.1,23.2-29.7
		c2,2.6,4.2,3.7,6.7,3.4c0.9-0.1,1.6-0.3,2.1-0.5c-0.8,1.2-3.4,4.8-7.7,10.6s-8,10.9-10.9,15.1c-2.9,4.3-5.7,9-8.1,14.3
		c-2.5,5.3-3.5,9.4-3.1,12.4c0.5,3.5,2.7,6.8,6.7,9.9c4,3.1,7.4,4.5,10.2,4.1c4.6-0.6,15.4-10.9,32.2-30.8c0,2.3,0.1,4.7,0.4,7
		c0.9,6.8,3.4,11.4,7.2,13.8c3.9,2.4,8,3.3,12.4,2.7c3.2-0.4,6.2-1.4,9.2-3c3-1.5,6.2-4,9.7-7.5c3.5-3.5,6.2-6.2,8.1-8.3
		c1.9-2,4.8-5.4,8.8-10.2c0.1,1.1,0.2,2.2,0.3,3.4c0.7,4.9,2.5,9,5.6,12.2c3,3.3,6.9,4.6,11.6,3.9c12.1-1.7,26.7-25.9,43.6-72.7
		c3.6-7.7,5.3-12.2,5.1-13.5C819,207.4,818.2,206,816.8,204.5"/>
	<path class="st1" d="M253.3,395.1c-3,0-5.6-2.2-6.1-5.3c-0.5-3.4,1.8-6.5,5.2-7l502.2-74.4c3.4-0.5,6.5,1.8,7,5.2
		c0.5,3.4-1.8,6.5-5.2,7L254.3,395C254,395.1,253.6,395.1,253.3,395.1"/>
</g>
<polygon class="st2" points="20.1,0.2 0,20.3 0,130.8 34.2,165.1 85.2,165.1 105.4,145.1 105.4,87.3 91.2,73.2 47.9,73.2 
	47.9,100.3 60.7,113 60.7,118 55.2,123.6 44.6,123.6 44.6,47.5 50.4,41.7 60.7,41.7 60.7,47.3 74.9,61.4 105.4,61.4 105.4,34.4 
	71,0.2 "/>
<polygon class="st2" points="171.7,0.2 171.7,118.1 166.3,123.8 156,123.8 156,14.3 141.9,0.2 111.9,0.2 111.9,131.2 145.8,165.1 
	196.9,165.1 215.9,146 216.1,14.3 202,0.2 "/>
<polygon class="st2" points="223.1,0.2 223.1,150.9 237.3,165.1 267.6,165.1 267.6,14.3 253.5,0.2 "/>
<polygon class="st2" points="274.4,0 274.4,150.9 288.6,165.1 378.1,165.1 378.1,137.8 364,123.7 319,123.6 318.9,14.1 304.8,0 "/>
<polygon class="st2" points="359.5,0.2 359.5,27.4 373.6,41.6 394,41.6 394,150.9 408.1,165.1 438.7,165.1 438.7,41.7 473.7,41.6 
	473.7,14.3 459.6,0.2 "/>
<polygon class="st2" points="548.8,0.2 548.9,150.9 563.1,165.1 593.3,165.1 593.5,100.8 639.7,100.6 639.7,74 625.6,59.9 
	593.5,59.9 593.5,41.7 650.3,41.7 650.3,14.3 636.2,0.2 "/>
<path class="st2" d="M702.2,41.7h16.1v21.9l-6.7,6.4h-9.4V41.7z M657.5,0.2l0.1,150.7l14.1,14.1h30.6l-0.1-53.5h4.1l17.2,39.4
	l14.1,14.1h33.6l-26.4-55l17.9-17.9l0.1-57.9L728.8,0.2H657.5z"/>
<polygon class="st2" points="771.3,0.2 771.4,150.9 785.6,165.1 874.6,165.1 874.7,137.8 860.6,123.7 816,123.6 816,100.8 
	860.2,100.9 860.2,74 846.1,59.9 816,59.9 816,41.7 874.7,41.7 874.7,14.3 860.6,0.2 "/>
<polygon class="st2" points="882.3,0.2 882.4,150.9 896.6,165.1 985.6,165.1 985.7,137.8 971.5,123.7 926.9,123.6 926.9,100.8 
	971.2,100.9 971.2,74 957,59.9 926.9,59.9 926.9,41.7 985.7,41.7 985.7,14.3 971.5,0.2 "/>
<polygon points="20.1,0.2 0,20.3 0,130.8 20.1,150.9 71,150.9 91.2,131 91.2,73.2 47.9,73.2 47.9,100.3 60.7,100.3 60.7,118 
	55.2,123.6 35.8,123.6 30.5,118.1 30.5,33.3 36.3,27.5 55.6,27.5 60.7,33 60.7,47.3 91.2,47.3 91.2,20.3 71,0.2 "/>
<polygon points="171.7,0.2 171.7,118.1 166.3,123.8 147.2,123.8 141.9,118.4 141.9,0.2 111.9,0.2 111.9,131.2 131.7,150.9 
	182.8,150.9 201.8,131.9 202,0.2 "/>
<rect x="223.1" y="0.2" width="30.4" height="150.7"/>
<polygon points="274.4,0 274.4,150.9 364,150.9 364,123.7 304.9,123.6 304.8,0 "/>
<polygon points="359.5,0.2 359.5,27.4 394,27.5 394,150.9 424.6,150.9 424.6,27.5 459.6,27.4 459.6,0.2 "/>
<polygon points="548.8,0.2 548.9,150.9 579.2,150.9 579.3,86.7 625.6,86.5 625.6,59.9 579.3,59.9 579.3,27.5 636.2,27.5 636.2,0.2 
	"/>
<path d="M688.1,27.5H712l6.4,6.4v29.6l-6.7,6.4h-23.5V27.5z M657.5,0.2l0.1,150.7h30.6l-0.1-53.5h12.1l23.3,53.5h33.6l-26.4-55
	l17.9-17.9l0.1-57.9l-20-20H657.5z"/>
<polygon points="771.3,0.2 771.3,139.8 771.4,150.9 860.5,150.9 860.6,123.7 801.8,123.6 801.8,86.7 846.1,86.8 846.1,59.9 
	801.8,59.9 801.8,27.5 860.6,27.5 860.6,0.2 "/>
<polygon points="882.3,0.2 882.3,139.8 882.4,150.9 971.4,150.9 971.5,123.7 912.8,123.6 912.8,86.7 957,86.8 957,59.9 912.8,59.9 
	912.8,27.5 971.5,27.5 971.5,0.2 "/>
</svg>
