<svg xmlns="http://www.w3.org/2000/svg" viewBox="0 0 372.95 357.43"><defs><style>.cls-1{isolation:isolate;}.cls-2{fill:#27aae1;}.cls-3{fill:#1b75bc;}.cls-4{fill:#fff;}.cls-5{fill:#e83d32;}.cls-6{fill:#e6e7e8;}.cls-11,.cls-12,.cls-7{fill:#606161;}.cls-7{opacity:0.1;}.cls-11,.cls-12,.cls-13,.cls-7{mix-blend-mode:multiply;}.cls-8{fill:#be1e2d;}.cls-9{fill:#f15a29;opacity:0.64;}.cls-10{fill:#871723;}.cls-11{opacity:0.29;}.cls-12,.cls-13{opacity:0.2;}.cls-13{fill:#231f20;}.cls-14{fill:#f26522;}.cls-15{fill:#f7941d;}.cls-16{fill:#c46c29;}.cls-17{fill:#e18426;}.cls-18,.cls-21{fill:#8d633a;}.cls-19{fill:#684426;}.cls-19,.cls-21{opacity:0.4;}.cls-20{fill:#a77d52;}.cls-22{fill:#e71e36;}.cls-23{fill:#776450;}.cls-24,.cls-25{fill:none;stroke-linecap:round;stroke-miterlimit:10;stroke-width:2px;}.cls-24{stroke:#e83d32;}.cls-25{stroke:#fff;}</style></defs><title>smaArtboard 85 copy 11</title><g class="cls-1"><g id="Layer_1" data-name="Layer 1"><circle class="cls-2" cx="181.48" cy="178.43" r="174.37"/><path class="cls-3" d="M299.13,177.77c-.3-66.5-53.91-120.41-120.41-120.41A120.41,120.41,0,0,0,58.31,177.77c0,66.5,53.91,120.82,120.41,120.41C246.64,297.77,299.43,244.19,299.13,177.77Z"/><path class="cls-4" d="M360.37,274.41v-.07h0c-.06-.36-.13-.72-.2-1.07l0-.12v0c-.11-.59-.24-1.17-.37-1.76,0-.06,0-.11,0-.17q-.13-.63-.27-1.25v-.05l0-.08a116.62,116.62,0,0,0-5.6-17.43l-.46-1.14-.15-.35a160.59,160.59,0,0,0-10.1-20.2,180.4,180.4,0,0,0-7.88-31l-.13-.35-.21-.58c-5.79-15.72-14.77-30.41-28.37-33l-.17,0-1.12-.18-.3,0-1.07-.1-.31,0c-.46,0-.92,0-1.38,0a23.8,23.8,0,0,0-2.95.19,11.93,11.93,0,0,0-4.43-5.63A10.11,10.11,0,0,0,289,158c-6,0-11.37,5-17.26,16.19a167.22,167.22,0,0,0-8.21,18.87c-.43.37-.87.71-1.31,1.07l-4.06,3a71.16,71.16,0,0,1-41,12.55h-.29a49.78,49.78,0,0,0,5.18-6.22,6,6,0,0,0,6.45-1.63A66.21,66.21,0,0,0,236.15,191a6,6,0,0,0,5.81-2.53A88.4,88.4,0,0,0,254.09,160a6.08,6.08,0,0,0,.64-.47c5.53-4.64,12.11-16,5.87-30.76h0a6,6,0,0,0,2.08-7.2c-.26-.63-5.18-12.15-18.47-20.7a6,6,0,0,0-1.81-6.81A48,48,0,0,0,219,85l-5-10.58h1.25a6,6,0,0,0,5.41-8.59c-.77-1.6-3.36-5.2-11.73-7.89.39-15.78-8.3-34.5-8.71-35.39a6,6,0,0,0-6.57-3.34c-31.09,6-40.68,23.93-43.57,33q-2.62.92-5.33,2a6,6,0,0,0-4.91-2.55l-.59,0A51.73,51.73,0,0,0,105,72.78a109.28,109.28,0,0,0-24.66-2.92c-15.46,0-28.73,3.61-39.43,10.72a6,6,0,0,0-2.64,5.69C38.46,88,41,103.38,68.5,131.89c-5.06,7.2-14.21,22.2-14.25,36.55a6,6,0,0,0,4.67,5.87c-.63,10.67,1.35,22,9.57,30.56a6,6,0,0,0,4.32,1.83l.29,0c4.76,10.2,12,21.17,22.35,27a6,6,0,0,0,8.38-2.69c8.59,4.55,20.24,8.08,35.69,8.08q1.67,0,3.41-.06a6,6,0,0,0,5.73-6.92c1.47.06,3,.1,4.5.11L158,282.54a6,6,0,0,0,0,1.56l.95,8.51c0,.18.06.36.1.54l.33,3.44c4.38.52,9.23,1.11,13.73,1.6a66.55,66.55,0,0,0,16.13,0c5.84-.62,11-2.4,16.78-3.24,3.56-.51,7.51-2.21,11-3.26l-9-36.07a95.35,95.35,0,0,0,19.52,4.55,89.6,89.6,0,0,0,22.53-.06l.1,0a11,11,0,0,0,.31,2.56,10.13,10.13,0,0,0,.58,1.66l-.06.15-.13.29-.16.36-.09.21-.21.48-.05.13-.25.58,0,.07-.29.68h0c-3.42,8.16-9.24,24.18-10,40.22,0,.14,0,.29-.05.43,0,.32,0,.65,0,1v.15c0,.11,0,.21,0,.31a64.1,64.1,0,0,0,.25,7.5q0,.28,0,.56.1,1,.24,1.9c0,.09,0,.18.06.27a41.52,41.52,0,0,0,4.24,13.46,34.59,34.59,0,0,0,3.26,5l.05.07c.38.49.77,1,1.18,1.42l.12.13q.61.69,1.25,1.34l.1.1q.67.67,1.38,1.31l0,0c5.53,4.93,12.84,8.14,21.87,9.58h0l.32.05.67.11.17,0a51.82,51.82,0,0,0,7.16.52c11,0,19.8-4,26-11.83,4.37-5.5,7-12.48,8.53-19.9a43.21,43.21,0,0,0,4.57.25c1.2,0,2.44-.06,3.7-.16h.35q1.28-.11,2.59-.28l.21,0c.75-.1,1.5-.22,2.26-.35h0l.32-.05.73-.13.09,0h0l.59-.13h0l.08,0c12.57-2.61,21.22-8.76,25.72-18.3l.25-.52c.06-.13.13-.26.19-.39a32.77,32.77,0,0,0,1.44-4.05l.05-.2c.11-.39.22-.79.31-1.19s.13-.54.19-.81l.11-.49A53.17,53.17,0,0,0,360.37,274.41ZM254.05,237.31h-1.32a6,6,0,0,0-4,1.57,68.59,68.59,0,0,1-10,.73,74.85,74.85,0,0,1-36.45-9.77,102.36,102.36,0,0,0,15,1.13h0a98.5,98.5,0,0,0,10.33-.54q1.24-.13,2.48-.3l1.4-.2,1-.15,1.95-.33.33-.06a90.37,90.37,0,0,0,22-7l.39-.18.89-.42A103.4,103.4,0,0,0,254.05,237.31Z"/><path class="cls-5" d="M307.06,188.68c-.73-11-27.58,1.78-27.58,1.78s21.89-18.68,11.89-25.66c-8.29-5.79-19.24,22.1-22.73,31.78-26,23.23-64.88,25.55-99.21,5.87l-4.58,8c20.18,11.56,41.85,16.18,62.08,14a84.86,84.86,0,0,0,41.95-16.26c-1.29,4.33-1.53,11.21,3.92,11.34,7,.17,3.76-15.45,3.76-15.45s14.76,13.43,19.22,7.36-13.92-14.37-13.92-14.37S307.79,199.71,307.06,188.68Z"/><path class="cls-6" d="M337.8,235.65s-9.25-69.88-39.15-64c-38.13,7.52-9.07,80-9.07,80Z"/><path class="cls-7" d="M337.8,235.65s-.42-3.16-1.36-8.06c-9.58,4.68-28.59,12-51.48,10.37,1.52,5.16,3,9.26,3.82,11.59,2.55-.2,6-.52,9.81-.87Z"/><path class="cls-8" d="M286.52,242.86s-10.42,82,43.78,71.52c51.83-10.07,7.12-81.55,7.12-81.55S323.54,245.92,286.52,242.86Z"/><path class="cls-6" d="M313.49,274l.39.26c.27.18.52-.25.25-.43l-.39-.26c-.27-.18-.52.25-.25.43Z"/><path class="cls-9" d="M286.35,244.37c7.34,3.12,14.49,6.73,21.64,10.24,4.47,2.2,9,4.34,13.5,6.44q-6.69,6-13.53,11.82c-7.37-3.95-14.83-7.75-22.22-11.67,0,.38,0,.76,0,1.14,5.37,2.84,10.76,5.63,16.14,8.45l5.23,2.77q-6.15,5.23-12.4,10.33c-1.74,1.42-3.49,2.81-5.25,4.21.1.33.2.66.31,1,1.26-1,2.52-2,3.75-2.95q7.05-5.7,14-11.57l.58-.5c4.52,2.43,9,4.91,13.43,7.51l.14.09q-9.33,10-18.71,19.92c-3.52-1.73-7-3.53-10.43-5.44q.36.77.75,1.53c2.94,1.63,5.9,3.22,8.91,4.72l-3.3,3.5c.22.24.44.49.67.72l3.56-3.76c1.3.65,2.61,1.29,3.93,1.9,3.92,1.83,7.88,3.57,11.85,5.3-1.49,1.54-3,3.07-4.49,4.6.39.08.8.14,1.2.21,1.43-1.46,2.87-2.9,4.28-4.37l7.36,3.18,2,.87,1-.18.71-.15-3.41-1.48-6.94-3q8.47-8.83,16.61-18l2.67,1.85A101.55,101.55,0,0,0,351.58,301c.17-.29.33-.58.48-.87a91.65,91.65,0,0,1-10.19-6.33L337.92,291q7.25-8.15,14.24-16.51l0,0,2.25.9c-.07-.38-.14-.76-.21-1.14l-1.39-.55,1-1.26q-.13-.61-.27-1.22l-1.09,1.34-.64.75c-5-2.06-10.06-4.2-15.06-6.39l5.24-5.65c2.05-2.22,4.18-4.4,6.2-6.67l-.43-1.06c-3.91,4.38-7.93,8.67-11.95,13-1.59-.7-3.19-1.38-4.77-2.09-2.62-1.17-5.23-2.38-7.84-3.59q5.7-5.12,11.3-10.35,4.15-3.89,8.23-7.84l-.47-.93q-9.85,9.52-20,18.67-5.77-2.68-11.49-5.46c-6.51-3.17-13-6.47-19.56-9.47q-2.37-1.08-4.78-2.09C286.44,243.57,286.4,243.92,286.35,244.37Zm33.32,64.93c-5.3-2.33-10.58-4.7-15.78-7.23q5.18-5.49,10.35-11,4.16-4.43,8.3-8.88c4.75,2.84,9.36,5.85,13.91,9Q328.23,300.4,319.67,309.29Zm29.52-36,2,.81q-6.93,8.3-14.11,16.39c-4.29-3-8.62-5.85-13.1-8.54l-.77-.45q4.79-5.12,9.57-10.25l3.29-3.55C340.45,269.56,344.81,271.43,349.2,273.25Zm-14-6-3.85,4.12q-4.46,4.8-8.95,9.58c-4.43-2.62-8.92-5.12-13.45-7.56q6.86-5.85,13.57-11.87Q328.79,264.44,335.16,267.24Z"/><path class="cls-10" d="M340.12,237.51c-1.63-2.95-2.7-4.67-2.7-4.67s-13.88,13.09-50.9,10c0,0-.19,1.52-.39,4.1C312.16,253.06,332.49,242.89,340.12,237.51Z"/><path class="cls-11" d="M284.79,217.6s-8.52-28.89,6.83-38.34C291.62,179.26,281.26,189.26,284.79,217.6Z"/><path class="cls-12" d="M324.63,315.16c-12.08-7.74-29.48-26.59-30.73-71.89-2.36-.07-4.81-.19-7.38-.41C286.52,242.86,276.85,319,324.63,315.16Z"/><path class="cls-13" d="M352.06,300.08c3.68-7.09,3.9-15.87,2.39-24.73h0c-.06-.36-.13-.72-.2-1.07v-.07h0q-.28-1.51-.63-3h0a111,111,0,0,0-5.34-16.61h0l-.42-1v0h0a161.8,161.8,0,0,0-7.71-16h0l0-.08-.49-.89-.13-.24-.37-.66-.12-.21-.34-.59-.09-.16-.66-1.11-.09-.15-.12-.2-.1-.16,0-.07-.1-.16,0,0c-2.1-12.93-12.42-66.38-38.73-61.2-29.93,5.9-18.47,51.8-12.15,71.29l0,.14v.07l0,.22,0,.16,0,.21,0,.3,0,.17,0,.4,0,.17,0,.46,0,.2,0,.56v.18l-.05.64V247c0,.23,0,.47-.05.72v.19c0,.26,0,.53-.05.81v.16c0,.29,0,.59-.05.89v.16q0,.47,0,1V251q0,.52,0,1.07v.1q0,.57,0,1.16v.07q0,.61,0,1.25v0c0,2-.05,4.18,0,6.49h0c0,.36,0,.73,0,1.1v0h0c.31,10.49,1.86,23.38,6.75,33.82h0q.35.75.73,1.49l0,0h0a37.55,37.55,0,0,0,5.62,8.22h0a27.82,27.82,0,0,0,15.52,8.75h0l1.19.2h0a38.06,38.06,0,0,0,9,.28h0a51,51,0,0,0,5.14-.69l.52-.09.71-.15h0c11-2.31,17.59-7.47,21.06-14.15h0Z"/><path class="cls-14" d="M261.66,202.07c-25.66,17.95-60.84,18.37-92.22.38l-4.58,8c20.18,11.56,41.85,16.18,62.08,14a85.12,85.12,0,0,0,37-12.85C263.08,208.45,262.37,205.26,261.66,202.07Z"/><polygon class="cls-4" points="158.32 205.72 165.43 297.48 211.22 293.58 188.61 202.52 158.32 205.72"/><path class="cls-14" d="M211.22,293.58l-17.74-72.4c-.71,3.69-1.58,7.35-2.39,11a5.25,5.25,0,0,1-.57,1.47c2,9.05-5.47,15.7-9,4.09a20.88,20.88,0,0,1-1-3.54c-4.84-.79-8.9-6.1-10.82-10.74-1.32-3.19,1-5.42,3.74-5.92a4.05,4.05,0,0,1,4.48.28c.9.69,1.74,1.36,2.53,2.06a5.62,5.62,0,0,1,1.38-.43l.11-.18a49.34,49.34,0,0,1,.85-7.62,4.42,4.42,0,0,1,5.27-3.51,6.07,6.07,0,0,1,2.13-.38l-1.54-6.2-30.29,3.21,7.11,92.67s18.69,5,45.78-3.89"/><polygon class="cls-15" points="162.36 223 211.22 293.58 206.03 271.75 173.18 220.63 162.36 223"/><polygon class="cls-15" points="178.72 240.03 193.47 221.18 197.15 233.09 193.75 255.42 178.72 240.03"/><path class="cls-6" d="M308.43,274.34s14-69.09-16.2-73.24c-38.5-5.3-34.6,72.69-34.6,72.69Z"/><path class="cls-7" d="M308.43,274.34s.63-3.12,1.33-8.07c-10.58,1.31-30.93,2-52.05-6.95-.24,5.37-.21,9.72-.16,12.2,2.47.64,5.88,1.48,9.56,2.37Z"/><path class="cls-8" d="M257.59,264.47S221,338.66,275.71,346.34C328,353.68,309,271.55,309,271.55S291.6,279.41,257.59,264.47Z"/><path class="cls-6" d="M272.92,302.69l.28.38c.19.25.63,0,.43-.25l-.28-.38c-.19-.25-.63,0-.43.25Z"/><path class="cls-9" d="M256.94,265.84c5.93,5.34,11.51,11.08,17.13,16.73q5.27,5.31,10.67,10.48-8.28,3.49-16.64,6.78c-5.69-6.13-11.5-12.16-17.21-18.26l-.34,1.08c4.15,4.43,8.35,8.82,12.51,13.24q2,2.16,4,4.33-7.52,2.94-15.09,5.73c-2.1.77-4.22,1.52-6.33,2.27,0,.35,0,.69,0,1,1.51-.52,3-1,4.5-1.57q8.52-3.09,17-6.4l.71-.28c3.48,3.77,6.92,7.57,10.25,11.48l.11.13Q266.12,319,254,325.36q-4.15-4.16-8.1-8.54.09.85.21,1.69,3.37,3.75,6.89,7.37l-4.25,2.23c.13.3.26.6.4.9l4.59-2.4c1,1,2,2.07,3.1,3.08,3.11,3,6.29,5.95,9.48,8.87-1.91,1-3.83,1.93-5.74,2.89.35.2.71.39,1.07.58,1.82-.91,3.66-1.81,5.47-2.74l5.92,5.4,1.61,1.47,1,.17.72.08-2.74-2.51-5.58-5.12q10.88-5.6,21.56-11.58c.64.87,1.29,1.74,1.92,2.62a101.55,101.55,0,0,0,8.62,10.74c.25-.22.5-.44.74-.67a91.65,91.65,0,0,1-7.58-9.31l-2.84-3.87q9.5-5.35,18.84-11l0,0,1.83,1.58c.06-.38.12-.76.17-1.15l-1.13-1,1.38-.85q.08-.62.14-1.24l-1.46.91-.85.5q-6.15-5.39-12.16-10.94l6.79-3.64c2.67-1.43,5.39-2.8,8-4.28,0-.38,0-.76-.07-1.14-5.12,2.87-10.32,5.62-15.51,8.37-1.28-1.18-2.56-2.34-3.83-3.53-2.1-2-4.17-4-6.24-5.94q7.06-3,14.06-6.11,5.19-2.32,10.34-4.74c0-.35-.1-.69-.14-1q-12.41,5.79-25,11.13-4.58-4.41-9.09-8.91c-5.12-5.12-10.15-10.33-15.41-15.31q-1.89-1.79-3.84-3.53Zm10.38,72.23c-4.26-3.93-8.47-7.89-12.57-12q6.68-3.5,13.36-7c3.58-1.89,7.16-3.8,10.73-5.7,3.56,4.23,6.95,8.58,10.23,13Q278.31,332.44,267.32,338.07ZM307,313.59l1.65,1.43q-9.25,5.6-18.67,10.91c-3.1-4.19-6.25-8.33-9.61-12.34l-.58-.68q6.19-3.29,12.39-6.58l4.27-2.28Q301.64,308.87,307,313.59Zm-11.32-10.24-5,2.64q-5.78,3.09-11.58,6.15c-3.34-3.92-6.77-7.75-10.26-11.52q8.39-3.3,16.7-6.81Q290.54,298.63,295.65,303.35Z"/><path class="cls-10" d="M310,276.85c-.58-3.32-1-5.3-1-5.3s-17.38,7.86-51.4-7.08c0,0-.67,1.37-1.7,3.75C278.52,282.45,301.05,279.46,310,276.85Z"/><path class="cls-11" d="M264.17,240s1.34-30.09,18.93-34C283.11,206,270.06,212.08,264.17,240Z"/><path class="cls-12" d="M270.11,345.23c-8.9-11.25-19.22-34.73-5.67-78-2.21-.83-4.48-1.75-6.85-2.79C257.59,264.47,223.67,333.34,270.11,345.23Z"/><path class="cls-5" d="M162.36,215l7.25-5.66c24.35,31.19,61.25,43.72,94.08,32,6.89-7.65,27.56-29.33,33-20.84,6.62,10.24-20.7,19.27-20.7,19.27s29.7-1.73,26.21,8.76-26.52-1.73-26.52-1.73,13.89,14.62,7.47,18.56-15-14.07-15-14.07-2.91,15.68-9.31,12.88c-5-2.18-2.18-8.45.65-12a83.84,83.84,0,0,1-31.29,2C203.67,251.18,180,237.52,162.36,215Z"/><path class="cls-14" d="M169.61,209.3C192,238,225.08,250.89,255.8,243.63c-.38,2.44-.75,4.89-1.11,7.33-.1.68-.26,1.49-.44,2.38a83.75,83.75,0,0,1-26,.87c-24.56-3-48.26-16.7-65.88-39.26Z"/><polygon class="cls-4" points="154.45 210.9 102.62 198.3 81.76 140.6 75.43 122.18 50.12 89.98 59.41 79.46 93.15 80.34 131.73 90.53 170.25 47.84 189.76 26.26 196.81 75.42 225.35 109.47 225.47 149.29 197.46 195.57 154.45 210.9"/><path class="cls-5" d="M257.16,123.89s-7.14-17.25-28.81-23.72c0,0,7.63-2.35,10.29-1.44a42.37,42.37,0,0,0-23.61-8L204.48,68.33l10.75.12s-1.74-3.64-12.79-6c2.89-14.82-7.67-37.33-7.67-37.33C162.6,31.37,156.23,51,155,56.9a150,150,0,0,0-27.25,12.19s4.94-8.13,12-11.39a46.11,46.11,0,0,0-32.23,22S70.71,68,44.21,85.58c0,0,1.8,15.47,32.18,45.77,0,0-16.09,19.59-16.13,37.1,0,0,6.69-17.79,12.35-23,0,0-17.69,36.69.22,55.26,0,0-4-13.79-1-19,0,0,2,13.36,8.29,23.66l-.77-.23a13.17,13.17,0,0,1,2.17,1.71l.16.17a35.27,35.27,0,0,1,5.95.4c-2-3.89-3.6-8.22-3.12-11.21a124.31,124.31,0,0,0,7.89,12.35c.79.24,1.58.47,2.37.77,4.8,1.87,9.38,3.94,13.93,6.23l7-.1c11.47,1.58,19.13,3.35,31.42,3,11.24-.3,22.34-.31,33.57,0,5.4.16,9-1.92,14.66-3.59,7.78-2.27,11.91-6.55.4,1.85a48.53,48.53,0,0,1,9.73-5.52l-.14-.06h0c.65-.39,1.31-.79,2-1.21a27,27,0,0,0,4.81-3.9c4-3.88,9.45-10.93,12.81-22.31,0,0,.46,11.94-.85,14.12,0,0,12.28-13.57,12.33-27.23,0,0,1.11,12,.64,14.48,0,0,12.6-18.23,12.56-38.35,0,0,1.73,6.73,1.3,8.21,0,0,15.42-12.94-2.29-34.08A11.56,11.56,0,0,1,257.16,123.89Zm-177.3-8.07c-12.61-6-22.89-25-22.89-25,13.34-9.09,37.59-.21,37.59-.21C85.23,100.58,79.86,115.82,79.86,115.82Zm93.76,35c-13.08,5.21-28.86-.22-35.15-16s-4.8-42.91,8.28-48.11,32.79,13.44,39.08,29.26S186.7,145.61,173.62,150.82ZM192.79,67.4S173.52,58.78,166.63,58c-3-.34,4.4-16.42,22-22C188.61,36,198.7,57,192.79,67.4Z"/><path class="cls-5" d="M71.14,182.36s7.12,34.77,27.27,46.11c0,0-8.55-13.25-10.27-19.85,0,0,12.84,25.8,54.6,24.41a49.16,49.16,0,0,1-21.68-11s57.27,16.2,90.26-15.28l-77.69-4s-39.93-25.11-40.75-25S71.14,182.36,71.14,182.36Z"/><path class="cls-4" d="M148.27,192.48c17.08,3.94,36.17-.6,56.82-13.55a.93.93,0,0,0-1-1.57c-22.06,13.83-42.22,17.89-59.92,12.06-27.53-9.07-39.7-39.36-39.82-39.66a.93.93,0,0,0-1.73.68c.12.31,12.62,31.4,41,40.75Q145.91,191.93,148.27,192.48Z"/><path class="cls-4" d="M93.14,155.17s.38-26.35,19.38-10.31c0,0-16-10.6-18.79,14.3"/><path class="cls-4" d="M196.83,136.26c-9.82,7,17,8.68,17,8.68s3.86-9,3.83-16.16S206.65,129.21,196.83,136.26Z"/><polygon class="cls-4" points="261.66 202.07 263.9 213.52 268.29 210.9 266.24 198.64 261.66 202.07"/><polygon class="cls-4" points="257.15 243.31 257.15 254.84 251.49 254.3 252.74 243.31 257.15 243.31"/><path class="cls-15" d="M162.95,264.47s17.38,1.83,40.2-2.87L206,271.75a54.55,54.55,0,0,1-42.19,4.16Z"/><path class="cls-16" d="M162.86,275a39.17,39.17,0,0,1,.37-6.66l-1.83-1.54s-22.33,3.24-23.51,19.94c0,0,11.52,7,11.23,6.74S153.92,279.12,162.86,275Z"/><path class="cls-17" d="M162.95,264.47s-17.93-13.7-30.69-2.87c0,0,3,13.14,3,12.74s21.23-10.13,28.54,1.57"/><path class="cls-12" d="M42.14,349.35l74,5.62L156,339.33s-47.67-11.86-47.78-13.83S45,348.43,43.56,348.89"/><polygon class="cls-18" points="42.14 349.35 21.75 340.89 21.75 332.62 40.02 331.47 45.41 337.04 42.14 349.35"/><path class="cls-19" d="M42,341.11l.06-1.94-20.31-5.45-.06,2s10.84,5.83,20.12,5.36"/><polygon class="cls-20" points="41.95 337.04 42.14 349.35 116.66 340.84 115.41 325.5 41.95 337.04"/><path class="cls-21" d="M115.84,330.11l.27,3.84s-53.32,8.64-74.29,7.13l.14-2.6Z"/><path class="cls-22" d="M18.26,331.72s9,7.15,17.54,7.61l1.38-9.23-2.24-6.25-16.68-6Z"/><path class="cls-8" d="M35.8,339.33s79.83-1.38,85.14-12.46.23-15,.23-15l-20.07.69-67.84,6.92A37.5,37.5,0,0,0,35.8,339.33Z"/><path class="cls-22" d="M16.86,296.35l-.63-43.46,12.82,1.67L32.57,296S21.24,294,16.86,296.35Z"/><path class="cls-22" d="M16.23,252.9s42.51-18.89,85-3.08l-2.07,2.29L31.8,255.81Z"/><path class="cls-8" d="M30.71,296.84l-1.66-42.27s20.66-15,72.19-4.75a185.15,185.15,0,0,1,3.32,36.09l-9.93,18.35S69,302.88,43.87,306.11Z"/><path class="cls-22" d="M123.48,311.87s-8.77,7.61-85.14,10.84l5.31-20.3L84,297.34,104.79,302Z"/><path class="cls-8" d="M48.75,322s2.55-11.21.28-19.15l-10.5-2.27-9.51.28s-4.54,1.13-4.54,1.84-.57,12.77-.57,12.77,2.41,6.81,6.67,7.8S48.75,322,48.75,322Z"/><path class="cls-22" d="M30.59,323.28s-5.25.14-4.4-20.15l-1.42-2.84L8,297.75s-1.28,9.65,1.56,16.74Z"/><path class="cls-8" d="M8,297.75s11.78-5.82,24.26-2.84L49,302.85s-2.69-1.66-22.84.28Z"/><path class="cls-8" d="M129.21,312.29a54.57,54.57,0,0,1-16.61,3.58L108,301.82l1.4-5.62,19.43-5.11,3.83,2.3S135.6,310.38,129.21,312.29Z"/><path class="cls-22" d="M94.41,306.1s-2-19.11,10.15-18.85c0,0,20.82.26,28.1,6.13,0,0-8.08-3.3-21.51,3.24,0,0-1.36,12.35,1.45,19.24Z"/><ellipse class="cls-23" cx="299.67" cy="47.48" rx="0.51" ry="0.65" transform="translate(-2.29 17.83) rotate(-3.4)"/><path class="cls-24" d="M162.36,130.59s20.4,23.61,20.4-6.1"/><path class="cls-25" d="M191,113.2s20.4,23.61,20.4-6.1"/><path class="cls-4" d="M36.52,283.35H25.7s-2.62,8.8,2.44,15.72h5.58S39,293.79,36.52,283.35Z"/><path class="cls-4" d="M23.15,293.27a3.81,3.81,0,1,0,1.46-7.47,3.81,3.81,0,1,0-1.46,7.47Zm-1.64-4.56a2.67,2.67,0,1,1,2.13,3A2.59,2.59,0,0,1,21.5,288.72Z"/><ellipse class="cls-4" cx="31.11" cy="283.36" rx="5.41" ry="0.48"/><ellipse class="cls-4" cx="30.93" cy="299.05" rx="2.78" ry="0.25"/></g></g></svg>