<svg height="387" viewBox="0 0 244 387" width="244" xmlns="http://www.w3.org/2000/svg" xmlns:xlink="http://www.w3.org/1999/xlink"><mask id="a" fill="#fff"><path d="m0 0h244v387h-244z" fill="#fff" fill-rule="evenodd"/></mask><g fill="none" fill-rule="evenodd" mask="url(#a)"><path d="m4 4h240v544h-240z" fill="#000"/><path d="m1 1h238v542h-238z" fill="#fff" stroke="#000" stroke-width="2"/><path d="m13 309h214v28h-214z" fill="#fff" stroke="#000" stroke-width="2"/><path d="m183 315h16v16h-16z" stroke="#000" stroke-width="2"/><path d="m186 328v4h-4v-4zm14 0v4h-4v-4zm0-14v4h-4v-4zm-14 0v4h-4v-4z" fill="#000"/><path d="m85 309h70v28h-70z" fill="#000" stroke="#000" stroke-width="2"/><path d="m43 317h12v12h-12z" stroke="#000" stroke-width="2"/><path d="m111 315h16v16h-16z" stroke="#fff" stroke-width="2"/><path d="m114 328v6h-6v-6zm16 0v6h-6v-6zm0-16v6h-6v-6zm-16 0v6h-6v-6z" fill="#fff"/><path d="m44 328v4h-4v-4zm14 0v4h-4v-4zm0-14v4h-4v-4zm-14 0v4h-4v-4z" fill="#000"/><path d="m17 275h1v1h-1z" fill="#d8d8d8" stroke="#979797" stroke-width="2"/><g stroke="#000" stroke-width="2" transform="translate(12 142)"><path d="m1 1h102v66h-102z" fill="#fff"/><g transform="translate(12 8)"><path d="m33 19h14v14h-14z"/><path d="m40 2v8"/><path d="m78 26h-8"/><path d="m10 26h-8"/><path d="m40 42v8"/><path d="m26 1h28"/><path d="m26 51h28"/><path d="m79 10v32"/><path d="m1 10v32"/></g></g><g stroke="#000" stroke-width="2" transform="translate(124 142)"><path d="m1 1h102v66h-102z" fill="#fff"/><g transform="translate(12 8)"><path d="m78 26h-76"/><path d="m40 1v50"/><path d="m32 1h16"/><path d="m32 51h16"/><path d="m79 18v16"/><path d="m1 18v16"/></g></g><g transform="translate(12 38)"><g stroke="#020203" stroke-width="1.92"><path d="m103.04.96v28.08h-102.08v-28.08z"/><path d="m77 0v28"/><path d="m77 15h26"/></g><g fill="#000" transform="translate(84 20)"><path d="m8 2h2v2h-2z"/><path d="m10 0h2v2h-2z"/><path d="m2 2h2v2h-2z"/><path d="m0 0h2v2h-2z"/><path d="m4 4h4v2h-4z"/></g><g fill="#000" transform="matrix(1 0 0 -1 84 10)"><path d="m8 2h2v2h-2z"/><path d="m10 0h2v2h-2z"/><path d="m2 2h2v2h-2z"/><path d="m0 0h2v2h-2z"/><path d="m4 4h4v2h-4z"/></g><path d="m62.826 22v-5.5h3.674v5.5h3.652v-2.398c0-.8066667-.1026667-1.474-.308-2.002s-.429-.9386667-.671-1.232-.4656667-.4986667-.671-.616-.308-.176-.308-.176.1026667-.0586667.308-.176.429-.3116667.671-.583.4656667-.6306667.671-1.078.308-.9936667.308-1.639v-2.926h-3.652v5.478h-3.674v-5.478h-3.652v2.926c0 .6453333.099 1.1916667.297 1.639s.4143333.8066667.649 1.078.451.4656667.649.583.297.176.297.176-.099.0586667-.297.176-.4143333.3226667-.649.616-.451.704-.649 1.232-.297 1.1953333-.297 2.002v2.398z" fill="#000" fill-rule="nonzero"/></g><g transform="translate(12 76)"><g stroke="#020203" stroke-width="1.92"><path d="m103.04.96v28.08h-102.08v-28.08z"/><path d="m77 0v28"/><path d="m77 15h26"/></g><g fill="#000" transform="translate(84 20)"><path d="m8 2h2v2h-2z"/><path d="m10 0h2v2h-2z"/><path d="m2 2h2v2h-2z"/><path d="m0 0h2v2h-2z"/><path d="m4 4h4v2h-4z"/></g><g fill="#000" transform="matrix(1 0 0 -1 84 10)"><path d="m8 2h2v2h-2z"/><path d="m10 0h2v2h-2z"/><path d="m2 2h2v2h-2z"/><path d="m0 0h2v2h-2z"/><path d="m4 4h4v2h-4z"/></g><path d="m65.334 22 4.818-4.84v-7.986h-3.652v9.108l-1.914 1.87h-1.76v-10.978h-3.652v10.978h-3.674v-10.978h-3.652v12.826z" fill="#000" fill-rule="nonzero"/></g><g transform="translate(124 270)"><g stroke="#020203" stroke-width="1.92"><path d="m103.04.96v28.08h-102.08v-28.08z"/><path d="m77 0v28"/><path d="m77 15h26"/></g><g fill="#000" transform="translate(84 20)"><path d="m8 2h2v2h-2z"/><path d="m10 0h2v2h-2z"/><path d="m2 2h2v2h-2z"/><path d="m0 0h2v2h-2z"/><path d="m4 4h4v2h-4z"/></g><g fill="#000" transform="matrix(1 0 0 -1 84 10)"><path d="m8 2h2v2h-2z"/><path d="m10 0h2v2h-2z"/><path d="m2 2h2v2h-2z"/><path d="m0 0h2v2h-2z"/><path d="m4 4h4v2h-4z"/></g><path d="m70.152 24v-1.826h-7.282v-.924l7.282-7.436v-2.552c0-.484-.1063333-.9496667-.319-1.397-.2126667-.44733333-.4986667-.847-.858-1.199s-.7663333-.63433333-1.221-.847-.924-.319-1.408-.319h-3.388c-.484 0-.9533333.10266667-1.408.308s-.858.47666667-1.21.814-.6343333.726-.847 1.166-.319.902-.319 1.386h1.782c0-.2493333.0586667-.4876667.176-.715s.2713333-.4253333.462-.594c.1906667-.16866667.4033333-.30433333.638-.407s.4766667-.154.726-.154h3.542v4.642l-7.326 7.502v2.552z" fill="#000" fill-rule="nonzero"/></g><g transform="translate(124 36)"><g stroke="#020203" stroke-width="1.92"><path d="m103.04 2.96v28.08h-102.08v-28.08z"/><path d="m77 2v28"/><path d="m77 17h26"/></g><g fill="#000" transform="translate(84 22)"><path d="m8 2h2v2h-2z"/><path d="m10 0h2v2h-2z"/><path d="m2 2h2v2h-2z"/><path d="m0 0h2v2h-2z"/><path d="m4 4h4v2h-4z"/></g><g fill="#000" transform="matrix(1 0 0 -1 84 12)"><path d="m8 2h2v2h-2z"/><path d="m10 0h2v2h-2z"/><path d="m2 2h2v2h-2z"/><path d="m0 0h2v2h-2z"/><path d="m4 4h4v2h-4z"/></g><path d="m66.346 26.4c.4693333 0 .9313333-.11 1.386-.33s.8616667-.506 1.221-.858.649-.7553333.869-1.21.33-.9166667.33-1.386v-13.442h-3.652v10.23h-3.674v-10.23h-3.652v8.338c0 .484.099.9496667.297 1.397s.4693333.8396667.814 1.177.7443333.6086667 1.199.814.946.308 1.474.308h3.542v3.344h-3.498c-.2493333 0-.4986667-.0476667-.748-.143s-.4693333-.2236667-.66-.385-.3446667-.352-.462-.572-.176-.4546667-.176-.704h-1.782c0 .4693333.11.924.33 1.364s.506.8286667.858 1.166.7553333.6086667 1.21.814.9166667.308 1.386.308z" fill="#000" fill-rule="nonzero"/></g><g transform="translate(124 76)"><g stroke="#020203" stroke-width="1.92"><path d="m103.04.96v28.08h-102.08v-28.08z"/><path d="m77 0v28"/><path d="m77 15h26"/></g><g fill="#000" transform="translate(84 20)"><path d="m8 2h2v2h-2z"/><path d="m10 0h2v2h-2z"/><path d="m2 2h2v2h-2z"/><path d="m0 0h2v2h-2z"/><path d="m4 4h4v2h-4z"/></g><g fill="#000" transform="matrix(1 0 0 -1 84 10)"><path d="m8 2h2v2h-2z"/><path d="m10 0h2v2h-2z"/><path d="m2 2h2v2h-2z"/><path d="m0 0h2v2h-2z"/><path d="m4 4h4v2h-4z"/></g><path d="m62.826 24v-11.022h3.674v11.022h3.652v-9.086c0-.5133333-.0953333-.9973333-.286-1.452s-.4546667-.8506667-.792-1.188-.737-.605-1.199-.803-.957-.297-1.485-.297h-3.564v-3.674h-3.652v16.5z" fill="#000" fill-rule="nonzero"/></g><g stroke="#000"><g stroke-width="2"><path d="m1 1h238v20h-238z" fill="#fff"/><path d="m4 5h14"/><path d="m23 5h12v12h-12z"/><path d="m4 9h14"/><path d="m4 13h14"/><path d="m4 17h14"/><path d="m40 5h196"/><path d="m40 9h196"/><path d="m40 13h196"/><path d="m40 17h196"/></g><path d="m0 123h240" stroke-width="2"/><path d="m0 227h240" stroke-width="2"/><path d="m0 259h240" stroke-width="2"/><path d="m0 353h240" stroke-width="2"/><path d="m13 271h102v28h-102z" fill="#fff" stroke-width="2"/></g><path d="m110 274v2h2v18h-2v2h-92v-2h-2v-18h2v-2z" fill="#000"/><path d="m13 237h214v12h-214z" fill="#fff" stroke="#000" stroke-width="2"/><g fill="#000" transform="translate(174 238)"><path d="m0 2h2v2h-2z"/><path d="m0 6h2v2h-2z"/><path d="m4 2h2v2h-2z"/><path d="m4 6h2v2h-2z"/><path d="m2 0h2v2h-2z"/><path d="m2 4h2v2h-2z"/><path d="m6 0h2v2h-2z"/><path d="m6 4h2v2h-2z"/><path d="m8 2h2v2h-2z"/><path d="m8 6h2v2h-2z"/><path d="m10 0h2v2h-2z"/><path d="m10 4h2v2h-2z"/><path d="m12 2h2v2h-2z"/><path d="m12 6h2v2h-2z"/><path d="m14 0h2v2h-2z"/><path d="m14 4h2v2h-2z"/><path d="m16 2h2v2h-2z"/><path d="m16 6h2v2h-2z"/><path d="m18 0h2v2h-2z"/><path d="m18 4h2v2h-2z"/><path d="m20 2h2v2h-2z"/><path d="m20 6h2v2h-2z"/><path d="m22 0h2v2h-2z"/><path d="m22 4h2v2h-2z"/><path d="m24 2h2v2h-2z"/><path d="m24 6h2v2h-2z"/><path d="m26 0h2v2h-2z"/><path d="m26 4h2v2h-2z"/><path d="m28 2h2v2h-2z"/><path d="m28 6h2v2h-2z"/><path d="m30 0h2v2h-2z"/><path d="m30 4h2v2h-2z"/><path d="m32 2h2v2h-2z"/><path d="m32 6h2v2h-2z"/><path d="m34 0h2v2h-2z"/><path d="m34 4h2v2h-2z"/><path d="m36 2h2v2h-2z"/><path d="m36 6h2v2h-2z"/><path d="m38 0h2v2h-2z"/><path d="m38 4h2v2h-2z"/><path d="m40 2h2v2h-2z"/><path d="m40 6h2v2h-2z"/><path d="m42 0h2v2h-2z"/><path d="m42 4h2v2h-2z"/><path d="m44 2h2v2h-2z"/><path d="m44 6h2v2h-2z"/><path d="m46 0h2v2h-2z"/><path d="m46 4h2v2h-2z"/><path d="m48 2h2v2h-2z"/><path d="m48 6h2v2h-2z"/><path d="m50 0h2v2h-2z"/><path d="m50 4h2v2h-2z"/><path d="m2 8h2v2h-2z"/><path d="m6 8h2v2h-2z"/><path d="m10 8h2v2h-2z"/><path d="m14 8h2v2h-2z"/><path d="m18 8h2v2h-2z"/><path d="m22 8h2v2h-2z"/><path d="m26 8h2v2h-2z"/><path d="m30 8h2v2h-2z"/><path d="m34 8h2v2h-2z"/><path d="m38 8h2v2h-2z"/><path d="m42 8h2v2h-2z"/><path d="m46 8h2v2h-2z"/><path d="m50 8h2v2h-2z"/></g><path d="m161 237h12v12h-12z" fill="#fff" stroke="#000" stroke-width="2"/><path d="m165 241h4v4h-4z" stroke="#000" stroke-width="2"/><path d="m18 242h142v2h-142z" fill="#000"/></g></svg>