<svg xmlns="http://www.w3.org/2000/svg" xmlns:xlink="http://www.w3.org/1999/xlink" width="620" height="560" viewBox="0 0 620 560">
  <defs>
    <path id="mac-a" d="M20,0 L600,0 C611.045695,-2.02906125e-15 620,8.954305 620,20 L620,560 L620,560 L0,560 L0,20 C-1.3527075e-15,8.954305 8.954305,2.02906125e-15 20,0 Z"/>
    <path id="mac-c" d="M20,0 L600,0 C611.045695,-2.02906125e-15 620,8.954305 620,20 L620,699 C620,704.522847 615.522847,709 610,709 L10,709 C4.4771525,709 6.76353751e-16,704.522847 0,699 L0,20 C-1.3527075e-15,8.954305 8.954305,2.02906125e-15 20,0 Z"/>
    <rect id="mac-e" width="592" height="672" x="14" y="37" rx="10"/>
    <rect id="mac-f" width="520" height="400" x="0" y="0" rx="10"/>
  </defs>
  <g fill="none" fill-rule="evenodd">
    <mask id="mac-b" fill="#fff">
      <use xlink:href="#mac-a"/>
    </mask>
    <use fill="#F2EFEA" xlink:href="#mac-a"/>
    <g mask="url(#mac-b)">
      <mask id="mac-d" fill="#fff">
        <use xlink:href="#mac-c"/>
      </mask>
      <path stroke="#000" stroke-width="2" d="M600,1 C605.246705,1 609.996705,3.12664744 613.435029,6.56497116 C616.873353,10.0032949 619,14.7532949 619,20 L619,20 L619,699 C619,701.485281 617.992641,703.735281 616.363961,705.363961 C614.735281,706.992641 612.485281,708 610,708 L610,708 L10,708 C7.51471863,708 5.26471863,706.992641 3.63603897,705.363961 C2.00735931,703.735281 1,701.485281 1,699 L1,699 L1,20 C1,14.7532949 3.12664744,10.0032949 6.56497116,6.56497116 C10.0032949,3.12664744 14.7532949,1 20,1 L20,1 Z"/>
      <path fill="#000" d="M31 37L27.256796 37C19.5671871 37 12.9651063 31.5298476 11.5356721 23.9742667L10.2531042 17.1949793C8.76449871 9.32663601 13.936298 1.74133031 21.8046413.252724825 22.5155256.1182332 23.2352289.0371842872 23.9577114.0101443869L24.5 0 0 0 0 560 22 560 31 37zM589 37L592.743204 37C600.432813 37 607.034894 31.5298476 608.464328 23.9742667L609.746896 17.1949793C611.235501 9.32663601 606.063702 1.74133031 598.195359.252724825 597.306753.0846102943 596.404368-1.66129761e-16 595.5 0L595.5 0 595.5 0 620 0 620 560 598 560 589 37z" mask="url(#mac-d)" opacity=".2"/>
    </g>
    <g mask="url(#mac-b)">
      <use fill="#F2EFEA" xlink:href="#mac-e"/>
      <rect width="590" height="670" x="15" y="38" fill="#000" fill-opacity=".099" stroke="#000" stroke-linejoin="square" stroke-width="2" rx="10"/>
    </g>
    <g mask="url(#mac-b)">
      <g transform="translate(50 75)">
        <mask id="mac-g" fill="#fff">
          <use xlink:href="#mac-f"/>
        </mask>
        <rect width="518" height="398" x="1" y="1" stroke="#000" stroke-width="2" rx="10"/>
        <path fill="#000" d="M0,0 L520,0 L520,400 L505.321381,376.514209 C501.034964,369.655942 492.000413,367.571046 485.142146,371.857463 C483.975869,372.586385 482.918094,373.475972 482,374.5 L482,374.5 L482,374.5 L482,38 L40,38 L40,374.5 C33.2943533,368.017875 22.6035518,368.199075 16.1214266,374.904722 C15.2996695,375.754815 14.5694623,376.68886 13.9428197,377.691488 L0,400 L0,400 L0,0 Z" mask="url(#mac-g)" opacity=".2"/>
        <path fill="#000" d="M520,0 L520,30 L520,13.6739529 C520,12.0170986 518.656854,10.6739529 517,10.6739529 C516.079417,10.6739529 515.209801,11.096617 514.641045,11.8204882 L501.418907,28.6486644 C499.204002,31.4676333 498,34.9487866 498,38.5338092 L498,68.5 L498,68.5 L470,49 L50,49 L23,68.5 L23,38.7289335 C23,35.0247884 21.714787,31.4353928 19.3636201,28.5731027 L5.49054593,11.6841429 C4.43887522,10.4038481 2.54844367,10.2185117 1.26814889,11.2701824 C0.558177254,11.8533734 0.154594896,12.7297448 0.172966983,13.6483491 L0.5,30 L0.5,30 L0,0 L520,0 Z" mask="url(#mac-g)" opacity=".22"/>
      </g>
    </g>
    <path fill="#000" d="M104.65177,96.0804219 C173.10118,94.0268073 241.55059,93 310,93 C378.44941,93 446.89882,94.0268073 515.348229,96.0804219 L515.348229,96.0804217 C531.737124,96.5721203 545.102826,109.371808 546.302788,125.724109 C550.100929,177.482739 552,229.24137 552,281 C552,331.545531 550.188905,379.37442 546.566716,424.486668 L546.566717,424.486668 C545.261205,440.746055 531.934676,453.421275 515.630318,453.911109 C447.086879,455.97037 378.543439,457 310,457 C241.456561,457 172.913122,455.97037 104.369683,453.911109 L104.369683,453.91111 C88.0653244,453.421276 74.7387956,440.746056 73.4332837,424.486668 C69.8110946,379.374421 68,331.545531 68,281 C68,229.24137 69.8990708,177.482739 73.6972123,125.724109 L73.6972125,125.724109 C74.8971737,109.371809 88.2628757,96.5721204 104.65177,96.0804219 Z" mask="url(#mac-b)"/>
  </g>
</svg>
