<svg height="22" viewBox="0 0 420 22" width="420" xmlns="http://www.w3.org/2000/svg"><g fill="none" fill-rule="evenodd"><g stroke="#000" stroke-width="2"><path d="m1 1h418v20h-418z" fill="#fff"/><path d="m4 5h14"/><path d="m23 5h12v12h-12z"/><path d="m4 9h14"/><path d="m4 13h14"/><path d="m4 17h14"/><path d="m39 5h143"/><path d="m238 5h178"/><path d="m39 9h143"/><path d="m238 9h178"/><path d="m39 13h143"/><path d="m238 13h178"/><path d="m39 17h143"/><path d="m238 17h178"/></g><path d="m188.93 16.5c.354667 0 .679-.063.973-.189s.546-.2986667.756-.518.373333-.4713333.49-.756.175-.5856667.175-.903v-.854c0-.28-.086333-.567-.259-.861s-.387333-.5833333-.644-.868-.534333-.5623333-.833-.833-.576333-.525-.833-.763-.471333-.455-.644-.651-.259-.364-.259-.504v-1.652h.924c.448 0 .795667.105 1.043.315s.371.50166667.371.875h1.148c0-.31733333-.063-.61833333-.189-.903s-.298667-.532-.518-.742-.473667-.378-.763-.504-.597333-.189-.924-.189h-.994c-.336 0-.651.06066667-.945.182s-.550667.28933333-.77.504-.392.46433333-.518.749-.189.595-.189.931v.84c0 .252.086333.511.259.777s.387333.5343333.644.805.536667.539.84.805.583333.5203333.84.763.471333.4736667.644.693.259.413.259.581v1.708h-1.064c-.373333 0-.674333-.112-.903-.336s-.343-.5133333-.343-.868h-1.176c0 .3266667.063.6323333.189.917s.298667.5343333.518.749.476.385.77.511.609.189.945.189zm11.704.056-4.06-4.144 4.06-4.074h-2.282l-2.366 2.38v-4.718h-2.324v10.5h2.324v-2.338l2.38 2.394zm6.888-.056c.298667 0 .592667-.063.882-.189s.548333-.2986667.777-.518.413-.469.553-.749.21-.574.21-.882h-1.148c0 .168-.037333.322-.112.462s-.172667.2613333-.294.364-.261333.1843333-.42.245-.322.091-.49.091h-2.17v-2.324h4.634v-2.268c0-.2986667-.063-.5926667-.189-.882-.126-.28933333-.296333-.546-.511-.77s-.471333-.40366667-.77-.539-.616-.203-.952-.203h-2.17c-.317333 0-.618333.06766667-.903.203s-.536667.315-.756.539-.392.48066667-.518.77c-.126.2893333-.189.5833333-.189.882v3.36c0 .2893333.063.5786667.189.868s.296333.5483333.511.777.464333.413.749.553.590333.21.917.21zm.084-4.662h-2.296v-2.352h2.296zm9.296 4.662v-1.176h-1.162v-5.824h1.162v-1.162h-1.162v-2.338h-2.324v2.338h-1.12v1.162h1.12v5.712c0 .168.035.329.105.483s.163333.2916667.28.413.254333.217.413.287.322.105.49.105zm5.824 0c.298667 0 .592667-.0723333.882-.217s.548333-.3313333.777-.56.413-.4923333.553-.791.21-.602.21-.91h-1.162c0 .168-.032667.329-.098.483s-.156333.2916667-.273.413-.254333.2193333-.413.294-.326667.112-.504.112h-1.12v-5.838h1.12c.177333 0 .343.03966667.497.119s.289333.182.406.308.21.266.28.42.105.3103333.105.469h1.162c0-.308-.07-.6113333-.21-.91-.14-.29866667-.324333-.56233333-.553-.791s-.487667-.413-.777-.553-.583333-.21-.882-.21h-1.106c-.298667 0-.588.06766667-.868.203s-.532.315-.756.539-.403667.48066667-.539.77c-.135333.2893333-.203.5833333-.203.882v3.36c0 .308.067667.6066667.203.896s.312667.546.532.77.471333.4036667.756.539.576333.203.875.203zm7.084 0v-7.014h2.338v7.014h2.324v-5.782c0-.3266667-.060667-.6346667-.182-.924-.121333-.28933333-.289333-.54133333-.504-.756s-.469-.385-.763-.511-.609-.189-.945-.189h-2.268v-2.338h-2.324v10.5z" fill="#000" fill-rule="nonzero"/></g></svg>