<svg height="548" viewBox="0 0 116 548" width="116" xmlns="http://www.w3.org/2000/svg"><g fill="none" fill-rule="evenodd"><path d="m4 4h112v544h-112z" fill="#000"/><path d="m1 1h110v542h-110z" fill="#fff" stroke="#000" stroke-width="2"/><path d="m0 0h56v48h-56z"/><g fill="#000"><path d="m18 8h2v28h-2z"/><path d="m20 10h2v24h-2z"/><path d="m22 12h2v20h-2z"/><path d="m24 14h2v16h-2z"/><path d="m26 16h2v14h-2z"/><path d="m28 18h2v12h-2z"/><path d="m30 20h2v8h-2z"/><path d="m32 22h2v6h-2z"/><path d="m34 24h2v4h-2z"/><path d="m36 26h2v2h-2z"/><path d="m24 24h6v6h-6z"/><path d="m26 28h4v4h-4z"/><path d="m28 32h4v4h-4z"/><path d="m30 36h4v4h-4z"/></g><path d="m0 48h56v48h-56z"/><g fill="#000"><path d="m22 56h4v2h-4z"/><path d="m22 78h4v2h-4z"/><path d="m26 58h4v2h-4z"/><path d="m26 76h4v2h-4z"/><path d="m18 58h4v2h-4z"/><path d="m18 76h4v2h-4z"/><path d="m16 60h2v2h-2z"/><path d="m16 74h2v2h-2z"/><path d="m30 60h2v2h-2z"/><path d="m30 74h2v2h-2z"/><path d="m32 76h4v4h-4z"/><path d="m34 78h4v4h-4z"/><path d="m36 80h4v4h-4z"/><path d="m38 82h4v4h-4z"/><path d="m40 84h4v4h-4z"/><path d="m32 62h2v4h-2z"/><path d="m34 66h2v4h-2z"/><path d="m32 70h2v4h-2z"/><path d="m14 62h2v4h-2z"/><path d="m12 66h2v4h-2z"/><path d="m14 70h2v4h-2z"/></g><path d="m56 496h56v48h-56z"/><g fill="#020203" transform="translate(68 508)"><path d="m0 20h2v-6h-2z"/><path d="m2 14.002h2.002v-2.002h-2.002z"/><path d="m2 22.002h2.002v-2.002h-2.002z"/><path d="m4 24h6v-2h-6z"/><path d="m10 22.002h2.002v-2.002h-2.002z"/><path d="m12 20h2v-6h-2z"/><path d="m10 14.002h2.002v-2.002h-2.002z"/><path d="m4 12h6v-2h-6z"/><path d="m18 20h2v-6h-2z"/><path d="m20 14.002h2.002v-2.002h-2.002z"/><path d="m20 22.002h2.002v-2.002h-2.002z"/><path d="m22 24h6v-2h-6z"/><path d="m28 22.002h2.002v-2.002h-2.002z"/><path d="m30 20h2v-6h-2z"/><path d="m28 14.002h2.002v-2.002h-2.002z"/><path d="m22 12h6v-2h-6z"/><path d="m8 24h18v-2h-18z"/><path d="m4 14h2v-4h-2z"/><path d="m6 18.002h2.002v-4.002h-2.002z"/><path d="m8 20.002h2.002v-2.002h-2.002z"/><path d="m10 22h4v-2h-4z"/><path d="m14 24.002h4.002v-2.002h-4.002z"/><path d="m18 22h4v-2h-4z"/><path d="m22 20.002h2.002v-2.002h-2.002z"/><path d="m24 18.002h2v-4.002h-2z"/><path d="m26 14h2v-4h-2z"/><path d="m24 10h2v-4h-2z"/><path d="m22 6h2.002v-2h-2.002z"/><path d="m18 4h4v-2h-4z"/><path d="m14 2.002h4.002v-2.002h-4.002z"/><path d="m10 4h4v-2h-4z"/><path d="m8 6h2.002v-2h-2.002z"/><path d="m6 10h2v-4h-2z"/></g><g transform="translate(56 448)"><path d="m0 0h56v48h-56z"/><g fill="#020203"><path d="m40 26h2v-4h-2z"/><path d="m36 22.002h4.002v-2.002h-4.002z"/><path d="m36 28.002h4.002v-2.002h-4.002z"/><path d="m32 20h4v-2h-4z"/><path d="m32 30h4v-2h-4z"/><path d="m28 32h4v-2h-4z"/><path d="m28 18h4v-2h-4z"/><path d="m24 16.002h4.002v-2.002h-4.002z"/><path d="m20 14h4v-2h-4z"/><path d="m24 34.002h4.002v-2.002h-4.002z"/><path d="m20 36h4v-2h-4z"/><path d="m16.002 12.002h4.001v-2.002h-4.001z"/><path d="m16 38.002h4.002v-2.002h-4.002z"/><path d="m14 40h2v-32h-2z"/><path d="m16 18.002h4.002v-2.002h-4.002z"/><path d="m20 20h4v-2h-4z"/><path d="m24 22.002h4.002v-2.002h-4.002z"/><path d="m28 26h4v-4h-4z"/><path d="m32 22.002h2.002v-2.002h-2.002z"/><path d="m32 28.002h2v-2h-2z"/><path d="m24 28.002h4.002v-2.002h-4.002z"/><path d="m20 30h4v-2h-4z"/><path d="m16 32h4.002v-2h-4.002z"/></g></g><path d="m0 112h56v48h-56z"/><g fill="#000"><path d="m28 136h2v20h-2z"/><path d="m26 116h2v20h-2z"/><path d="m24 118h2v2h-2z"/><path d="m30 118h2v2h-2z"/><path d="m24 152h2v2h-2z"/><path d="m30 152h2v2h-2z"/><path d="m14 134h2v4h-2z"/><path d="m40 134h2v4h-2z"/><path d="m18 128h2v2h-2z"/><path d="m36 128h2v2h-2z"/><path d="m18 142h2v2h-2z"/><path d="m36 142h2v2h-2z"/><path d="m22 120h2v4h-2z"/><path d="m32 120h2v4h-2z"/><path d="m22 148h2v4h-2z"/><path d="m32 148h2v4h-2z"/><path d="m20 124h2v4h-2z"/><path d="m34 124h2v4h-2z"/><path d="m20 144h2v4h-2z"/><path d="m34 144h2v4h-2z"/><path d="m16 130h2v4h-2z"/><path d="m38 130h2v4h-2z"/><path d="m16 138h2v4h-2z"/><path d="m38 138h2v4h-2z"/></g><path d="m56 224h56v48h-56z"/><g fill="#020203" transform="translate(70 234)"><path d="m12 28.002h4.002v-2.002h-4.002z"/><path d="m16 26h4v-2h-4z"/><path d="m20 24.002h4.002v-2.002h-4.002z"/><path d="m22 22h2v-2h-2z"/><path d="m24 20h2v-4h-2z"/><path d="m26 16h2v-4h-2z"/><path d="m8 26h4v-2h-4z"/><path d="m4 24h4v-2h-4z"/><path d="m4 22h2.002v-2h-2.002z"/><path d="m2 20h2v-4h-2z"/><path d="m0 16h2v-4h-2z"/><path d="m2 12.002h2v-4.002h-2z"/><path d="m4 8h2v-4h-2z"/><path d="m6 6.002h2.002v-2.002h-2.002z"/><path d="m8 4h4v-2h-4z"/><path d="m12 2h4.002v-2h-4.002z"/><path d="m16 4h4v-2h-4z"/><path d="m20 6.002h4.002v-2.002h-4.002z"/><path d="m24 12.002h2.002v-4.002h-2.002z"/><path d="m22 8.002h2v-2.002h-2z"/></g><g transform="translate(0 160)"><path d="m0 0h56v48h-56z"/><g fill="#020203"><path d="m14 36h2v-24h-2z"/><path d="m40 36h2v-24h-2z"/><path d="m16 12h24v-2h-24z"/><path d="m16 38h24v-2h-24z"/><path d="m28 20h2v-4h-2z"/><path d="m30 16h4v-2h-4z"/><path d="m34 20h2v-4h-2z"/><path d="m30 22h4v-2h-4z"/><path d="m16 28.002h2.002v-2.002h-2.002z"/><path d="m18 26h2v-2h-2z"/><path d="m20 24.002h2.002v-2.002h-2.002z"/><path d="m22 22.002h2.002v-2.002h-2.002z"/><path d="m24 24.002h2.002v-2.002h-2.002z"/><path d="m26 26h2.002v-2h-2.002z"/><path d="m28 28.002h2v-2.002h-2z"/><path d="m30 30.002h2.002v-2.002h-2.002z"/><path d="m32 32.002h2.002v-2.002h-2.002z"/><path d="m34 34.002h2.002v-2.002h-2.002z"/><path d="m36 36.002h2.002v-2.002h-2.002z"/><path d="m32 28.002h2.002v-2.002h-2.002z"/><path d="m34 26h2.002v-2h-2.002z"/><path d="m36 28.002h2.002v-2.002h-2.002z"/><path d="m38 30.002h2.002v-2.002h-2.002z"/></g></g><g transform="translate(0 384)"><path d="m0 0h56v48h-56z"/><g fill="#020203"><path d="m42.0064 10v18h-18v-18zm-2.0003553 2.0001777h-13.9992894v13.9996446h13.9992894z"/><path d="m32.0064 20v18h-18v-18zm-2.0003553 2.0001777h-13.9992894v13.9996446h13.9992894z"/><path d="m24.006 28.013h8.005v-8.007h-8.005z"/></g></g><path d="m56 0h56v48h-56z"/><path d="m68 22h2v4h-2z" fill="#000"/><path d="m70 20h4v2h-4z" fill="#000"/><path d="m74 16h2v4h-2z" fill="#000"/><path d="m72 12h2v4h-2z" fill="#000"/><path d="m74 10h4v2h-4z" fill="#000"/><path d="m78 12h2v4h-2z" fill="#000"/><path d="m80 10h2v10h-2z" fill="#000"/><path d="m82 8h4v2h-4z" fill="#000"/><path d="m86 10h2v10h-2z" fill="#000"/><path d="m88 10h4v2h-4z" fill="#000"/><path d="m92 12h2v10h-2z" fill="#000"/><path d="m94 16h2v2h-2z" fill="#000"/><path d="m96 14h2v2h-2z" fill="#000"/><path d="m98 16h2v6h-2z" fill="#000"/><path d="m96 22h2v8h-2z" fill="#000"/><path d="m94 30h2v4h-2z" fill="#000"/><path d="m92 34h2v6h-2z" fill="#000"/><path d="m76 20h2v6h-2z" fill="#000"/><path d="m70 26h2v2h-2z" fill="#000"/><path d="m74 22h2v2h-2z" fill="#000"/><path d="m72 28h2v4h-2z" fill="#000"/><path d="m74 32h2v2h-2z" fill="#000"/><path d="m76 34h2v2h-2z" fill="#000"/><path d="m78 36h2v4h-2z" fill="#000"/><g transform="translate(56 336)"><path d="m0 0h56v48h-56z"/><g fill="#020203"><path d="m42.0064 10v18h-18v-18zm-2.0003553 2.0001777h-13.9992894v13.9996446h13.9992894z"/><path d="m26 20.004v5.996h6v12.0048h-18v-18z"/></g></g><g transform="translate(56 272)"><path d="m0 0h56v48h-56z"/><g fill="#020203"><path d="m12 38h32v-2h-32z"/><path d="m14 36.002h2.002v-2.002h-2.002z"/><path d="m40 36.002h2.002v-2.002h-2.002z"/><path d="m16 34h2v-4h-2z"/><path d="m18 30.002h2.002v-4.002h-2.002z"/><path d="m20 26h2v-4h-2z"/><path d="m22 22.002h2.002v-4.002h-2.002z"/><path d="m24 18h2v-4h-2z"/><path d="m38 34h2v-4h-2z"/><path d="m36 30.002h2v-4.002h-2z"/><path d="m34 26h2v-4h-2z"/><path d="m32 22.002h2.002v-4.002h-2.002z"/><path d="m30 18h2v-4h-2z"/><path d="m26 14.002h4.002v-2.002h-4.002z"/></g></g><path d="m56 160h56v48h-56z"/><g fill="#020203" transform="translate(72 168)"><path d="m0 32h8v-2h-8z"/><path d="m2 30h4v-2h-4z"/><path d="m4 28h2v-2h-2z"/><path d="m6 26h2v-6h-2z"/><path d="m8 20h10v-2h-10z"/><path d="m8 18h2v-2h-2z"/><path d="m10 16h2v-4h-2z"/><path d="m14 8h2v-4h-2z"/><path d="m16 4h2v-4h-2z"/><path d="m12 12h2v-4h-2z"/><path d="m18 30h4v-30h-4z"/><path d="m16 32h8v-2h-8z"/></g><path d="m56 48h56v48h-56z"/><path d="m66 58h2v8h-2z" fill="#000"/><path d="m66 78h2v8h-2z" fill="#000"/><path d="m100 58h2v8h-2z" fill="#000"/><path d="m100 78h2v8h-2z" fill="#000"/><path d="m66 70h2v4h-2z" fill="#000"/><path d="m100 70h2v4h-2z" fill="#000"/><path d="m68 58h6v2h-6z" fill="#000"/><path d="m68 84h6v2h-6z" fill="#000"/><path d="m94 58h6v2h-6z" fill="#000"/><path d="m94 84h6v2h-6z" fill="#000"/><path d="m80 58h8v2h-8z" fill="#000"/><path d="m80 84h8v2h-8z" fill="#000"/><path d="m0 272h56v48h-56z"/><path d="m18 282h20v2h-20z" fill="#000"/><path d="m38 284h2v2h-2z" fill="#000"/><path d="m16 284h2v2h-2z" fill="#000"/><path d="m40 286h2v20h-2z" fill="#000"/><path d="m18 308h20v2h-20z" fill="#000"/><path d="m14 286h2v20h-2z" fill="#000"/><path d="m38 306h2v2h-2z" fill="#000"/><path d="m16 306h2v2h-2z" fill="#000"/><path d="m0 224h56v48h-56z"/><g transform="translate(12 232)"><path d="m0 2.002h2.002v-2.002h-2.002z" fill="#020203"/><path d="m2.002 4.003h2.001v-2.001h-2.001z" fill="#020203"/><path d="m4.003 6.005h2.002v-2.002h-2.002z" fill="#020203"/><path d="m6.005 8.005h2v-2h-2z" fill="#020203"/><path d="m8.005 10.006h2.001v-2.001h-2.001z" fill="#020203"/><path d="m10.006 12.008h2.002v-2.002h-2.002z" fill="#020203"/><path d="m12.006 14.008h2.002v-2.002h-2.002z" fill="#020203"/><path d="m14.01 14.01h2.001v-2.002h-2.001z" fill="#020203"/><path d="m12 14h2v4h-2z" fill="#000"/><path d="m14 12h4v2h-4z" fill="#000"/><path d="m18 14h2v4h-2z" fill="#000"/><path d="m14 18h4v2h-4z" fill="#000"/><g fill="#020203"><path d="m4.003 2.002h2.002v-2.002h-2.002z"/><path d="m6.005 4.003h4.001v-2.001h-4.001z"/><path d="m10.006 6.005h4.004v-2.002h-4.004z"/><path d="m14.01 8.005h4.001v-2h-4.001z"/><path d="m18.011 10.006h4.003v-2.001h-4.003z"/><path d="m22.014 12.008h2.002v-2.002h-2.002z"/><path d="m12.008 26.018h2.002v-2.002h-2.002z"/><path d="m24.016 20.013h2.002v-8.005h-2.002z"/><path d="m0 6.005h2.002v-2.002h-2.002z"/><path d="m2.002 10.006h2.001v-4.001h-2.001z"/><path d="m4.003 14.01h2.002v-4.004h-2.002z"/><path d="m6.005 18.011h2v-4.001h-2z"/><path d="m8.005 22.014h2.001v-4.003h-2.001z"/><path d="m10.006 24.016h2.002v-2.002h-2.002z"/><path d="m14.01 26.018h4.001v-2.002h-4.001z"/><path d="m20.013 28.019h2.001v-2.001h-2.001z"/><path d="m18.011 26.018h2.002v-2.002h-2.002z"/><path d="m24.016 24.016h2.002v-2.002h-2.002z"/><path d="m24.016 30.019h2.002v-2h-2.002z"/><path d="m20.013 32.021h4.003v-2.002h-4.003z"/><path d="m18.011 30.019h2.002v-2h-2.002z"/><path d="m28.019 20.013h2v-2.002h-2z"/><path d="m26.018 22.014h2.001v-2.001h-2.001z"/><path d="m26.018 28.019h2.001v-2.001h-2.001z"/><path d="m28.019 26.018h2v-2.002h-2z"/><path d="m30.019 24.016h2.002v-4.003h-2.002z"/><path d="m22.014 26.018h2.002v-2.002h-2.002z"/></g></g><g transform="translate(56 112)"><path d="m0 0h56v48h-56z"/><g fill="#020203"><path d="m24 10h8v-2h-8z"/><path d="m24 26h8v-2h-8z"/><path d="m24 32h8v-2h-8z"/><path d="m24 32h8v-2h-8z"/><path d="m24 40h8v-2h-8z"/><path d="m24 36h8v-2h-8z"/><path d="m32 12h4v-2h-4z"/><path d="m32 24h4v-2h-4z"/><path d="m32 30h4v-2h-4z"/><path d="m32 38h4v-2h-4z"/><path d="m32 34h4v-2h-4z"/><path d="m36 14h4v-2h-4z"/><path d="m36 22h4v-2h-4z"/><path d="m36 28h4v-2h-4z"/><path d="m36 36h4v-2h-4z"/><path d="m36 32h4v-2h-4z"/><path d="m40 16h4v-2h-4z"/><path d="m40 20h4v-2h-4z"/><path d="m40 26h4v-2h-4z"/><path d="m40 34h4v-2h-4z"/><path d="m40 30h4v-2h-4z"/><path d="m44 18h4v-2h-4z"/><path d="m44 24h4v-2h-4z"/><path d="m44 32h4v-2h-4z"/><path d="m44 28h4v-2h-4z"/><path d="m8 18h4v-2h-4z"/><path d="m8 24h4v-2h-4z"/><path d="m8 32h4v-2h-4z"/><path d="m8 28h4v-2h-4z"/><path d="m12 16h4v-2h-4z"/><path d="m12 20h4v-2h-4z"/><path d="m12 26h4v-2h-4z"/><path d="m12 34h4v-2h-4z"/><path d="m12 30h4v-2h-4z"/><path d="m16 14h4v-2h-4z"/><path d="m16 22h4v-2h-4z"/><path d="m16 28h4v-2h-4z"/><path d="m16 36h4v-2h-4z"/><path d="m16 32h4v-2h-4z"/><path d="m20 12h4v-2h-4z"/><path d="m20 24h4v-2h-4z"/><path d="m20 30h4v-2h-4z"/><path d="m20 38h4v-2h-4z"/><path d="m20 34h4v-2h-4z"/></g></g><g transform="translate(0 448)"><path d="m0 0h56v48h-56z"/><g fill="#020203"><path d="m16 38h2v-6h-2z"/><path d="m18 32h6v-2h-6z"/><path d="m24 38h2v-6h-2z"/><path d="m18 40h6v-2h-6z"/><path d="m38 14.002h2.002v-2.002h-2.002z"/><path d="m36 12.002h2.002v-2.002h-2.002z"/><path d="m34 10.002h2.002v-2.002h-2.002z"/><path d="m36 16h2.002v-2h-2.002z"/><path d="m34 18.002h2.002v-2.002h-2.002z"/><path d="m20 14h18v-2h-18z"/><path d="m32 28h4v-2h-4z"/><path d="m28 26h4.002v-2h-4.002z"/><path d="m18 20h2v-6h-2z"/><path d="m24 24h4v-2h-4z"/><path d="m20 22h4v-2h-4z"/><path d="m36 34h2v-6h-2z"/><path d="m26 36h10v-2h-10z"/></g></g><g transform="translate(56 384)"><path d="m0 0h56v48h-56z"/><g fill="#020203"><path d="m42.0064 10v18h-10.002l.0004-8h-7.9984v-10z"/><path d="m24 28.0064h8.0048v-8.0064h.0016v18h-18v-18h9.9936z"/></g></g><path d="m0 496h56v48h-56z"/><g fill="#020203" transform="translate(14 506)"><path d="m0 26h2v-20h-2z"/><path d="m2 28h20v-2h-20z"/><path d="m22 26h2v-12h-2z"/><path d="m16 2h12v-2h-12z"/><path d="m26 12h2v-10h-2z"/><path d="m2 6h12v-2h-12z"/><path d="m24 4.002h2.002v-2.002h-2.002z"/><path d="m22 6.002h2.002v-2.002h-2.002z"/><path d="m20 8h2.002v-2h-2.002z"/><path d="m18 10.002h2.002v-2.002h-2.002z"/><path d="m16 12.002h2.002v-2.002h-2.002z"/><path d="m14 14.002h2v-2.002h-2z"/><path d="m12 16.002h2.002v-2.002h-2.002z"/><path d="m10 18h2.002v-2h-2.002z"/></g><g transform="translate(0 336)"><path d="m0 0h56v48h-56z"/><path d="m41.0064 11v16h-10v10h-16v-16.0001l10-.001v-9.9989z" stroke="#000" stroke-width="2"/></g><path d="m55 0v546" stroke="#000" stroke-width="2"/><path d="m0 433h112" stroke="#000" stroke-width="2"/><path d="m0 447h112" stroke="#000" stroke-width="2"/><path d="m0 495h112" stroke="#000" stroke-width="2"/><path d="m0 385h112" stroke="#000" stroke-width="2"/><path d="m0 319h112" stroke="#000" stroke-width="2"/><path d="m0 271h112" stroke="#000" stroke-width="2"/><path d="m0 223h112" stroke="#000" stroke-width="2"/><path d="m0 207h112" stroke="#000" stroke-width="2"/><path d="m0 161h112" stroke="#000" stroke-width="2"/><path d="m0 111h112" stroke="#000" stroke-width="2"/><path d="m0 95h112" stroke="#000" stroke-width="2"/><path d="m0 49h112" stroke="#000" stroke-width="2"/><path d="m0 337h112" stroke="#000" stroke-width="2"/></g></svg>